<svg id="Layer_1" data-name="Layer 1" xmlns="http://www.w3.org/2000/svg" viewBox="0 0 148.29 128.86"><defs><style>.cls-1{fill:#736868;}.cls-2{fill:#4d4d4d;}.cls-3{fill:#58391b;}.cls-4{fill:#1d1309;}.cls-5{fill:#917050;}.cls-6{fill:#f0e3ba;}.cls-7{fill:#8f6311;}.cls-8{fill:#ffd079;}.cls-9{fill:#bf8417;}.cls-10{fill:#60420c;}.cls-11{fill:#72654f;}</style></defs><path class="cls-1" d="M195.89,160.13h-4.32l27.16-8.48a3.17,3.17,0,0,0,.38,1.22Z" transform="translate(-147.76 -148.11)"/><path class="cls-1" d="M224.67,153a3.29,3.29,0,0,0,.42-1.21l23.6,8.32h-3.85Z" transform="translate(-147.76 -148.11)"/><path class="cls-2" d="M221.57,154.51a3.2,3.2,0,0,1-2.84-2.86,2.58,2.58,0,0,1,0-.68,3.21,3.21,0,1,1,6.38.7.29.29,0,0,1,0,.09,3.29,3.29,0,0,1-.42,1.21A3.21,3.21,0,0,1,221.57,154.51Z" transform="translate(-147.76 -148.11)"/><polygon class="cls-3" points="145.07 125.51 144.97 15.17 148.13 11.93 148.18 11.92 148.29 128.72 148.13 128.72 145.01 125.51 145.07 125.51"/><polygon class="cls-4" points="130.21 29.92 18 30.03 14.79 26.82 133.42 26.71 133.42 27.05 130.21 30.35 130.21 29.92"/><polygon class="cls-3" points="130.21 30.35 133.42 27.05 133.5 113.69 130.29 110.39 130.21 30.35"/><polygon class="cls-5" points="144.97 15.14 3.21 15.27 0 12.06 43.81 12.02 48.13 12.02 97.08 11.97 100.93 11.97 148.13 11.93 144.97 15.17 144.97 15.14"/><polygon class="cls-3" points="14.79 26.82 18 30.03 18 31 18.08 110.86 14.87 114.07 14.79 27.7 14.79 26.82"/><polygon class="cls-3" points="3.21 15.27 3.21 15.84 3.32 125.64 0.11 128.86 0 12.55 0 12.06 3.21 15.27"/><polygon class="cls-5" points="130.29 110.75 130.29 110.39 133.5 113.69 133.5 113.96 14.87 114.07 18.08 110.86 130.29 110.75"/><polygon class="cls-4" points="145.01 125.51 148.13 128.72 0.11 128.86 3.32 125.64 145.01 125.51"/><polygon class="cls-6" points="137.27 23.09 137.27 22.85 10.93 22.97 10.94 117.93 11.02 117.93 137.28 117.81 137.36 117.81 137.36 117.74 141.14 121.61 141.14 121.66 7.17 121.78 7.07 19.12 141.12 19 141.12 19.13 141.22 121.62 137.36 117.66 137.27 23.09"/><polygon class="cls-7" points="143.15 123.58 143.04 17.15 144.97 15.17 145.07 125.51 145.01 125.51 143.13 123.58 143.15 123.58"/><polygon class="cls-8" points="14.87 114.07 133.5 113.96 133.5 113.69 135.43 115.67 135.43 115.88 12.94 116 14.87 114.07"/><polygon class="cls-7" points="5.25 123.71 3.32 125.64 3.21 15.84 3.21 15.27 5.14 17.2 5.25 123.71"/><polygon class="cls-9" points="133.42 27.05 135.35 25.07 135.43 115.67 133.5 113.69 133.42 27.05"/><polygon class="cls-8" points="144.97 15.14 144.97 15.17 143.04 17.15 143.04 17.07 5.14 17.2 3.21 15.27 144.97 15.14"/><polygon class="cls-10" points="143.13 123.58 145.01 125.51 3.32 125.64 5.25 123.71 143.13 123.58"/><polygon class="cls-9" points="14.79 27.7 14.87 114.07 12.94 116 12.86 24.9 14.79 26.82 14.79 27.7"/><polygon class="cls-7" points="133.42 27.05 133.42 26.71 14.79 26.82 12.86 24.9 135.35 24.78 135.35 25.07 133.42 27.05"/><path class="cls-11" d="M285.12,265.92v-.15L285,171.2V171l-126.34.12.09,95L285,265.92ZM283.19,264l-122.49.12-.08-91.1,122.48-.12v.29l.08,90.6Z" transform="translate(-147.76 -148.11)"/><path class="cls-11" d="M290.91,271.69l-.11-106.43v-.08l-137.9.13.1,106.51,137.89-.13ZM289,269.77h-.08l-134,.13-.1-102.67,134-.12v.13l.1,102.49Z" transform="translate(-147.76 -148.11)"/></svg>