<svg id="Layer_1" data-name="Layer 1" xmlns="http://www.w3.org/2000/svg" xmlns:xlink="http://www.w3.org/1999/xlink" viewBox="0 0 360.42 269.18"><defs><style>.cls-1{fill:none;}.cls-2{clip-path:url(#clip-path);}.cls-3{fill:#895d3b;}.cls-4{fill:#744f30;}.cls-5{fill:#6e4b2e;}.cls-6{fill:#693f24;}.cls-7{fill:#b3b3b3;}.cls-8{fill:#909295;}.cls-9{fill:#fff;}.cls-10{fill:#54331c;}.cls-11{fill:#d42629;}.cls-12{fill:#831618;}.cls-13{fill:#b00607;}.cls-14{fill:#dd5154;}.cls-15{fill:#9c4546;}.cls-16{fill:#6d0304;}.cls-17{fill:#920101;}.cls-18{fill:#5b0001;}.cls-19{fill:#e47476;}.cls-20{fill:#b02b30;}.cls-21{fill:#a50506;}.cls-22{fill:#890101;}.cls-23{fill:#ac0a0d;}.cls-24{fill:#660304;}.cls-25{fill:#b22025;}.cls-26{fill:#c14d51;}.cls-27{fill:#a00b0d;}.cls-28{fill:#cd7174;}.cls-29{fill:#971215;}.cls-30{fill:#6f0c0d;}.cls-31{fill:#bd2226;}.cls-32{fill:#c4393c;}.cls-33{fill:#9d0506;}</style><clipPath id="clip-path" transform="translate(3.96 2.44)"><rect class="cls-1" width="352.02" height="264.02"/></clipPath></defs><g class="cls-2"><polygon class="cls-3" points="359.04 268.94 1.1 268.94 1.1 224.71 359.04 224.71 359.04 268.94 359.04 268.94"/><path class="cls-4" d="M-3.15,266.74V222H355.37v44.71Zm358.23-.24v0Zm-357.65-.25H354.78V222.51H-2.57v43.74Z" transform="translate(3.96 2.44)"/><rect class="cls-5" x="1.1" y="261.3" width="357.94" height="0.48"/><polygon class="cls-5" points="1.1 255.02 1.1 254.54 359.04 254.54 359.04 255.02 1.1 255.02 1.1 255.02"/><polygon class="cls-5" points="1.1 248.27 1.1 247.79 359.04 247.79 359.04 248.27 1.1 248.27 1.1 248.27"/><polygon class="cls-5" points="1.1 241.51 1.1 241.03 359.04 241.03 359.04 241.51 1.1 241.51 1.1 241.51"/><polygon class="cls-5" points="1.1 234.76 1.1 234.28 359.04 234.28 359.04 234.76 1.1 234.76 1.1 234.76"/><path class="cls-6" d="M339.88,262c-.85,0-1.55.3-1.55.68s.7.67,1.55.67,1.56-.3,1.56-.67-.7-.68-1.56-.68Z" transform="translate(3.96 2.44)"/><path class="cls-7" d="M341.27,262c0,.46-.66.83-1.47.83s-1.47-.37-1.47-.83.66-.83,1.47-.83S341.27,261.49,341.27,262Z" transform="translate(3.96 2.44)"/><path class="cls-8" d="M338.18,262c0-.56.76-.95,1.62-.95s1.6.39,1.61.95-.76.95-1.61.95S338.2,262.52,338.18,262Zm.3,0c0,.35.55.71,1.32.71s1.32-.36,1.32-.71-.56-.71-1.32-.71S338.48,261.6,338.48,262Z" transform="translate(3.96 2.44)"/><path class="cls-6" d="M339.88,242.77c-.85,0-1.55.3-1.55.68s.7.67,1.55.67,1.56-.3,1.56-.67-.7-.68-1.56-.68Z" transform="translate(3.96 2.44)"/><path class="cls-7" d="M341.27,242.77c0,.46-.66.83-1.47.83s-1.47-.37-1.47-.83.66-.83,1.47-.83S341.27,242.32,341.27,242.77Z" transform="translate(3.96 2.44)"/><path class="cls-8" d="M338.18,242.77c0-.56.76-.94,1.62-1s1.6.39,1.61,1-.76.95-1.61.95S338.2,243.34,338.18,242.77Zm.3,0c0,.36.55.71,1.32.71s1.32-.35,1.32-.71-.56-.71-1.32-.71S338.48,242.42,338.48,242.77Z" transform="translate(3.96 2.44)"/><path class="cls-6" d="M22.91,262c-.86,0-1.55.3-1.55.68s.69.67,1.55.67,1.55-.3,1.55-.67-.69-.68-1.55-.68Z" transform="translate(3.96 2.44)"/><path class="cls-7" d="M24.3,262c0,.46-.66.83-1.47.83s-1.47-.37-1.47-.83.66-.83,1.47-.83S24.3,261.49,24.3,262Z" transform="translate(3.96 2.44)"/><path class="cls-8" d="M21.21,262c0-.56.76-.95,1.62-.95s1.6.39,1.61.95-.76.95-1.61.95S21.23,262.52,21.21,262Zm.3,0c0,.35.55.71,1.32.71s1.32-.36,1.32-.71-.56-.71-1.32-.71S21.51,261.6,21.51,262Z" transform="translate(3.96 2.44)"/><path class="cls-6" d="M22.91,242.77c-.86,0-1.55.3-1.55.68s.69.67,1.55.67,1.55-.3,1.55-.67-.69-.68-1.55-.68Z" transform="translate(3.96 2.44)"/><path class="cls-7" d="M24.3,242.77c0,.46-.66.83-1.47.83s-1.47-.37-1.47-.83.66-.83,1.47-.83S24.3,242.32,24.3,242.77Z" transform="translate(3.96 2.44)"/><path class="cls-8" d="M21.21,242.77c0-.56.76-.94,1.62-1s1.6.39,1.61,1-.76.95-1.61.95S21.23,243.34,21.21,242.77Zm.3,0c0,.36.55.71,1.32.71s1.31-.35,1.32-.71-.56-.71-1.32-.71S21.51,242.42,21.51,242.77Z" transform="translate(3.96 2.44)"/><path class="cls-9" d="M57.4,110.55a3.9,3.9,0,0,1-1.62-1.8,2.55,2.55,0,0,0,.35,2.47c.15-.53,1.27-.67,1.27-.67Z" transform="translate(3.96 2.44)"/><path class="cls-6" d="M321.87,239.07h-5.45a5.77,5.77,0,0,0,2.41.47,11.28,11.28,0,0,0,3-.47Zm15.9,0h-4.58a4.14,4.14,0,0,1-1.33.25,3.5,3.5,0,0,1-1.23-.25h-2.3a11.79,11.79,0,0,1,1.49,1.05,4.39,4.39,0,0,0,2.83,1.1c1.79,0,3.5-1.17,5.12-2.15Zm-12.59-4.53h0a2.68,2.68,0,0,0-1.69.76,7.37,7.37,0,0,1-4.73,1.79h0a8.84,8.84,0,0,1-5-1.7,4.91,4.91,0,0,0,1.83,3.2h7.77a3.43,3.43,0,0,1,1.85-.46,5.66,5.66,0,0,1,2.14.46h2.43a8.89,8.89,0,0,1-1.69-1.72c-1-1.2-1.85-2.33-2.91-2.33Zm29.32-2.22h-5.56a9,9,0,0,0-1.42,2c-1.43,2.46-2.37,3.28-3.32,3.29-1.47,0-2.41-1.95-4.37-1.95h0c-1,0-2.27.46-4,1.9a10.25,10.25,0,0,1-1.53,1.07h4.36a6.78,6.78,0,0,1,1.93-.76,7,7,0,0,1,1.2-.15c1.11,0-.26.88,3.6.88,4.74,0,5-4.71,7.38-4.71.84,0,1.41-.67,1.79-1.53Zm.24-.62-.14.14h.09l.05-.14Zm-3.59-.45h0a2.73,2.73,0,0,0-1.64.59h3.71a5.56,5.56,0,0,0-2.05-.59Z" transform="translate(3.96 2.44)"/><path class="cls-10" d="M323.36,238.59h-7.77a3.92,3.92,0,0,0,.83.48h5.45c.47-.13,1-.28,1.49-.48Zm6.42,0h-2.43a9.75,9.75,0,0,1,1,.48h2.3a3.57,3.57,0,0,1-.85-.48Zm8.82,0h-4.36a5.67,5.67,0,0,1-1.05.48h4.58c.28-.17.55-.33.83-.48Z" transform="translate(3.96 2.44)"/><path class="cls-10" d="M354.69,231.84h-.09a1.12,1.12,0,0,1-.57.2,2.64,2.64,0,0,1-.83-.2h-3.71a4.59,4.59,0,0,0-.55.48h5.56c.07-.16.13-.32.19-.48Z" transform="translate(3.96 2.44)"/><path class="cls-6" d="M24.29,239.07H21.87a3.51,3.51,0,0,1-1.24.25,4.24,4.24,0,0,1-1.33-.25H14.66c1.65,1,3.39,2.21,5.22,2.21a4.34,4.34,0,0,0,2.82-1.1,10.31,10.31,0,0,1,1.59-1.11Zm11.93,0H30.46a11.54,11.54,0,0,0,3.24.52,5.65,5.65,0,0,0,2.52-.52Zm-8.91-4.53c-1,0-1.93,1.13-2.9,2.33a8.89,8.89,0,0,1-1.69,1.72H25.3a5.6,5.6,0,0,1,2-.4,3.71,3.71,0,0,1,1.76.4H37a5,5,0,0,0,1.76-3.22,8.86,8.86,0,0,1-5,1.72h0A7.35,7.35,0,0,1,29,235.3a2.7,2.7,0,0,0-1.7-.76h0ZM3.56,232.32H-2c.39.89,1,1.58,1.82,1.58,2.26,0,2.61,4.32,6.8,4.69H8.2c2.61-.14,1.59-.86,2.59-.86a8,8,0,0,1,1.2.15,6.52,6.52,0,0,1,1.83.71h4.44a10.25,10.25,0,0,1-1.53-1.07c-1.75-1.44-3-1.9-4-1.9h0c-2,0-2.9,1.9-4.37,1.95-1,0-1.9-.83-3.32-3.29a9.4,9.4,0,0,0-1.42-2Zm-5.79-.61s0,.08,0,.13h.09l-.13-.13Zm3.58-.46a5.56,5.56,0,0,0-2,.59H3a2.68,2.68,0,0,0-1.63-.59h0Z" transform="translate(3.96 2.44)"/><path class="cls-10" d="M8.2,238.59H6.61a5.35,5.35,0,0,0,.58,0c.38,0,.72,0,1,0Zm10.06,0H13.82l.84.48H19.3a5.91,5.91,0,0,1-1-.48Zm7,0H22.72a3.57,3.57,0,0,1-.85.48h2.42c.36-.19.69-.35,1-.48Zm11.71,0H29.07l.09.06c.45.16.89.31,1.3.42h5.76a4,4,0,0,0,.79-.48Z" transform="translate(3.96 2.44)"/><path class="cls-10" d="M3,231.84H-.7a2.71,2.71,0,0,1-.83.2,1.09,1.09,0,0,1-.57-.2h-.09l.18.48H3.56a4.64,4.64,0,0,0-.56-.48Z" transform="translate(3.96 2.44)"/><path class="cls-11" d="M94-2.32s14.42,164.45-73.9,158.52l18.63,79s-4.81,3.95-9.61,0c-2.25-1.85-3.45-.13-4.86,1.6-1.59,1.95-3.47,3.91-7.46.62-3.53-2.9-5.27-1.92-6.62-1-1.52,1.1-2.55,2.19-5.09-2.26-2.18-3.8-4-3.25-5.38-2.69-1.65.66-2.6,1.33-2.6-5.7V-2.32Z" transform="translate(3.96 2.44)"/><path class="cls-12" d="M16.73,237.52c-1.75-1.44-3-1.9-4-1.9-2,0-2.93,1.9-4.41,1.95-1,0-1.9-.83-3.32-3.29s-2.61-3-3.61-3-2.07.76-2.9.79C-2.61,232-3,230.78-3,225.83V-2.44H94v0h.13l0,.11s.87,10,.87,24.91c0,44.66-7.75,133.84-70.32,133.89-1.44,0-2.92,0-4.42-.14l18.61,78.92-.06.05a8.87,8.87,0,0,1-5.09,1.79A7.37,7.37,0,0,1,29,235.3a2.7,2.7,0,0,0-1.7-.76c-1.06,0-1.95,1.12-2.93,2.33s-2.07,2.44-3.78,2.45a6.46,6.46,0,0,1-3.9-1.8Zm.2-.17a6.09,6.09,0,0,0,3.7,1.72c1.5,0,2.57-1.13,3.54-2.33s1.84-2.43,3.17-2.45a3.05,3.05,0,0,1,1.91.84,7,7,0,0,0,4.52,1.72,8.51,8.51,0,0,0,4.83-1.68L20,156.07h.19c1.57.1,3.09.15,4.59.15,31.07,0,48.58-22.2,58.33-50S94.75,44.9,94.75,22.58c0-7.47-.21-13.69-.43-18-.19-3.83-.38-6.21-.43-6.74H-2.71v228a22.24,22.24,0,0,0,.34,4.88c.23.89.52,1.08.84,1.08.6,0,1.63-.77,2.9-.78s2.47.7,3.88,3.16,2.35,3.18,3.05,3.16c1.15,0,2.21-1.93,4.41-2,1.1,0,2.45.51,4.22,2Z" transform="translate(3.96 2.44)"/><path class="cls-13" d="M87.74,28.49C77.81,136,21.94,154.71,21.94,154.71h.9C71,154.72,84.21,69.13,87.76,28.5Z" transform="translate(3.96 2.44)"/><path class="cls-13" d="M76.21,67.48C47.44,145.89,15.44,153.42,12,154c0,0,0,0,0,.05,40.3-.36,64.24-86.58,64.24-86.58Z" transform="translate(3.96 2.44)"/><path class="cls-14" d="M22.54,200.52c-1.5,0-4.81-32.72-3.16-34.69,0,0,4.66,34.69,3.16,34.69Zm-4.32-42.16a1.35,1.35,0,0,0-.28,0c0,2.29.09,5.83.33,10.16l.09.18a1.42,1.42,0,0,1,.08.45,1.25,1.25,0,0,1-.11.5C19.63,192.17,23.67,233.8,24,237l.19-.23c.87-1.05,1.64-2.14,2.73-2.39a2,2,0,0,1,.71-.14,1.67,1.67,0,0,1,1.31.67,1.3,1.3,0,0,1,.2.15l-9-73.23a19.29,19.29,0,0,0-1.36-3.25.69.69,0,0,0-.49-.19Z" transform="translate(3.96 2.44)"/><path class="cls-15" d="M28.92,234.88a2.18,2.18,0,0,1,.23.33l0-.18a1.3,1.3,0,0,0-.2-.15Zm-2-.53c-1.09.25-1.86,1.34-2.73,2.39L24,237c0,.13,0,.19,0,.19a7.05,7.05,0,0,1,2.9-2.81Z" transform="translate(3.96 2.44)"/><path class="cls-14" d="M12.32,191.88c-2.11,0-1.42-31.43-.15-32.47,0,0,2.27,32.47.15,32.47Zm.5-32.91c-2.35,0-1.28,2.11-2,2.11a.17.17,0,0,1-.1,0c-1.48,17,.19,72.82.24,74.79l.09,0A2.47,2.47,0,0,1,12.8,235a2.75,2.75,0,0,1,1.75.73S15,173,12.82,159Z" transform="translate(3.96 2.44)"/><path class="cls-15" d="M11.05,235.8l-.09,0v0l.08-.09Z" transform="translate(3.96 2.44)"/><path class="cls-14" d="M4.66,184.47c-1.76,0,.74-25,2-25,.11,0,.2.19.29.59,0,0-.34,24.44-2.26,24.44Zm2-25.82c-1,0-.84.52-1.51,2.18l-.15.34C2.72,174,.23,228.18.09,231.26l.26-.09a1.55,1.55,0,0,1,.82-.21,2,2,0,0,1,.56.08,3.26,3.26,0,0,1,1.65.75l4.87-70.64c-.15-.94-.44-2.41-1.18-2.48l-.37,0Z" transform="translate(3.96 2.44)"/><path class="cls-15" d="M.35,231.17l-.26.09v.13a1.14,1.14,0,0,1,.27-.22ZM1.73,231a4.34,4.34,0,0,1,1.64.92v-.17A3.26,3.26,0,0,0,1.73,231Z" transform="translate(3.96 2.44)"/><path class="cls-13" d="M15.62,170.53c.31,20.56,2.41,64.77,2.55,67.71a5.22,5.22,0,0,0,2,.8C20,236.5,17,195.21,18,195.21s2.86,40.88,3,43.84a3.24,3.24,0,0,0,1.41-.57c-.18-2.92-3-47.31-5-67.94l-.24.08a2.41,2.41,0,0,1-.53.07h0a2.09,2.09,0,0,1-.51-.07,1.71,1.71,0,0,1-.48-.09Z" transform="translate(3.96 2.44)"/><path class="cls-16" d="M18.17,238.24v.15a5.86,5.86,0,0,0,2.66.83,2.27,2.27,0,0,0,1.61-.59s0,0,0-.15a3.24,3.24,0,0,1-1.41.57v.17l-.81-.05a.6.6,0,0,1,0-.13,5.22,5.22,0,0,1-2-.8Z" transform="translate(3.96 2.44)"/><path class="cls-14" d="M72.47,32.82l-.42.23C54.75,136,4.92,147.15,4.92,147.15,51.6,143,67.72,65.55,72.47,32.82Z" transform="translate(3.96 2.44)"/><path class="cls-13" d="M.61,128.05c-3.67,11.3-1.13,14.72,3.3,14.72,6.8,0,18-8.05,18-8.05-6,2.43-10.42,3.36-13.58,3.36-10.4,0-7.75-10-7.75-10Z" transform="translate(3.96 2.44)"/><path class="cls-13" d="M24.64,145.09s-9.36,6.37-17.31,6.37A9.62,9.62,0,0,1-.29,148.3s.44,4.94,6.34,4.94c.25,0,.5,0,.77,0,.65-.1,1.27-.24,1.85-.38a14.79,14.79,0,0,1,2.35-.49c3.41-1.1,7.85-3.32,13.62-7.26Z" transform="translate(3.96 2.44)"/><path class="cls-13" d="M8.92,175.29c-1.35,0-3.62,54.42-3.79,58.67l.12.21a12.83,12.83,0,0,0,1.42,2.11,4.06,4.06,0,0,0,.5.43h0s0-43.84,1.25-43.84c.08,0,.15.18.22.54l.47-17.67c-.06-.29-.12-.45-.19-.45Z" transform="translate(3.96 2.44)"/><path class="cls-16" d="M5.13,234c0,.17,0,.26,0,.26a9,9,0,0,0,1.55,2.06,12.83,12.83,0,0,1-1.42-2.11L5.13,234Z" transform="translate(3.96 2.44)"/><path class="cls-13" d="M9.35,177.89l-.48,18c.54,10-.09,41.37-.09,41.37a3.55,3.55,0,0,1-.71-.07,1.82,1.82,0,0,0,.52.08l.21,0a3.74,3.74,0,0,0,.85-.51c0-3.07.49-47.52-.3-58.83Z" transform="translate(3.96 2.44)"/><path class="cls-16" d="M9.65,236.72a3.74,3.74,0,0,1-.85.51,1.72,1.72,0,0,0,.85-.35v-.16Z" transform="translate(3.96 2.44)"/><path class="cls-13" d="M50.17,95.79c-19.55,31.32-39.37,34-45.63,34a13.71,13.71,0,0,1-2-.12,20.3,20.3,0,0,0,9,2.14c21.6,0,38.71-36,38.71-36Z" transform="translate(3.96 2.44)"/><path class="cls-13" d="M.91,109.53c-2.07,13.59,2.68,17,8.05,17,5.56,0,11.77-3.7,11.77-3.7a27.76,27.76,0,0,1-4.35.37C1.91,123.24.91,109.53.91,109.53Z" transform="translate(3.96 2.44)"/><path class="cls-14" d="M40.76,104.54c-.93,1.67-8.14,13.75-23.19,13.75a33.69,33.69,0,0,1-10.65-1.84,21.24,21.24,0,0,0,12.63,4.6c6.35,0,14.16-3.48,21.21-16.51Zm.1-.19-.1.19.1-.19Z" transform="translate(3.96 2.44)"/><path class="cls-12" d="M17.72,114.1c32-1.66,44.8-55,49.15-81.6,1.45-8.86,2-14.73,2-14.74h.29a255.78,255.78,0,0,1-9.56,47.39c-7.47,23.83-20.27,48-41.84,49.19l0-.25Z" transform="translate(3.96 2.44)"/><path class="cls-13" d="M65.51,40.11c-3.32,13.07-19.64,70.46-49.86,70.46-.51,0-1,0-1.52,0a15.7,15.7,0,0,0,6.43,1.22c10.24,0,30.42-8.09,43.82-66.11q.62-2.85,1.13-5.52Z" transform="translate(3.96 2.44)"/><path class="cls-16" d="M66.15,37.48s-.21,1-.64,2.63-.72,3.62-1.13,5.52q.9-3.91,1.77-8.15Z" transform="translate(3.96 2.44)"/><path class="cls-12" d="M.78,70.11a102.35,102.35,0,0,1,.89-13.68l.29,0a102.16,102.16,0,0,0-.89,13.65C1.06,84,4,103.75,19.71,105.83l-.05.24C3.59,103.88.79,84,.78,70.11Z" transform="translate(3.96 2.44)"/><path class="cls-13" d="M1.13,66.69c0,1.09-.06,2.24-.06,3.42A73.83,73.83,0,0,0,2.9,87.35c3.91,14,12.48,17.77,17,17.77,3.72,0,4.65-2.61-2.15-4.23C3.12,97.41,1.25,75.83,1.13,66.69Z" transform="translate(3.96 2.44)"/><path class="cls-16" d="M1.19,62.6c-.82,10.56,0,18.63,1.71,24.75A73.83,73.83,0,0,1,1.07,70.11c0-1.18,0-2.33.06-3.42,0-2.51.06-4.09.06-4.09Z" transform="translate(3.96 2.44)"/><path class="cls-12" d="M37.25,151.75c34.19-15.4,45.42-76.61,48.86-106.24,1.15-9.88,1.44-16.23,1.44-16.25h.29s-4.6,102-50.45,122.69Z" transform="translate(3.96 2.44)"/><path class="cls-12" d="M15.54,153.68c30-6.57,47.7-47.32,54.62-67.29,2.31-6.65,3.43-11,3.43-11l.29,0S56,145,15.61,153.91Z" transform="translate(3.96 2.44)"/><path class="cls-12" d="M0,115.85a28.54,28.54,0,0,1,.75-6.34l.28,0a28.38,28.38,0,0,0-.74,6.29c0,4.67,1.39,10.2,7.84,10.57l0,.24C1.41,126.25,0,120.53,0,115.85Z" transform="translate(3.96 2.44)"/><path class="cls-13" d="M1.51,158.67c-2,0-3.72,19.93-4.22,26.35V217.6c1-8.82,6.41-58.93,4.22-58.93Z" transform="translate(3.96 2.44)"/><path class="cls-16" d="M-2.71,185c-.1,1.23-.15,2-.15,2v31.94s0-.47.15-1.32V185Z" transform="translate(3.96 2.44)"/><path class="cls-17" d="M18,195.21c-1,0,2,41.29,2.18,43.83a3.07,3.07,0,0,0,.42,0h0l.37,0c-.13-3-2-43.84-3-43.84Z" transform="translate(3.96 2.44)"/><path class="cls-18" d="M20.21,239a.6.6,0,0,0,0,.13l.81.05v-.17l-.37,0h0a3.07,3.07,0,0,1-.42,0Z" transform="translate(3.96 2.44)"/><path class="cls-13" d="M7.17,236.71a1.35,1.35,0,0,0,.9.46,2.85,2.85,0,0,1-.9-.46Z" transform="translate(3.96 2.44)"/><path class="cls-17" d="M8.42,192.87c-1.25,0-1.25,43.84-1.25,43.84h0a2.85,2.85,0,0,0,.9.46,3.55,3.55,0,0,0,.71.07s.63-31.39.09-41.37l-.81,29.8H7.77l.87-32.25c-.07-.36-.14-.54-.22-.54Z" transform="translate(3.96 2.44)"/><path class="cls-19" d="M6.63,159.44c-1.23,0-3.73,25-2,25,1.92,0,2.26-24.44,2.26-24.44-.09-.4-.18-.59-.29-.59Z" transform="translate(3.96 2.44)"/><path class="cls-19" d="M12.17,159.41c-1.27,1-2,32.47.15,32.47s-.15-32.47-.15-32.47Z" transform="translate(3.96 2.44)"/><path class="cls-19" d="M19.38,165.83c-1.65,2,1.66,34.69,3.16,34.69s-3.16-34.69-3.16-34.69Z" transform="translate(3.96 2.44)"/><path class="cls-20" d="M20.13,231.76,16.73,174Z" transform="translate(3.96 2.44)"/><polygon class="cls-12" points="20.54 176.42 20.84 176.41 24.24 234.19 23.95 234.2 20.54 176.42"/><polygon class="cls-20" points="11.88 228.1 13.68 161.11 11.88 228.1 11.88 228.1"/><polygon class="cls-12" points="11.73 228.1 13.53 161.11 13.83 161.11 12.03 228.11 11.73 228.1 11.73 228.1"/><path class="cls-12" d="M8.07,154.44a15.78,15.78,0,0,1-5.11-1l.11-.22a15.51,15.51,0,0,0,5,1,5.79,5.79,0,0,0,2.62-.52,2.12,2.12,0,0,0,.71-.51l.25.13s-.94,1.14-3.57,1.14Z" transform="translate(3.96 2.44)"/><path class="cls-12" d="M3.49,161.82a6.17,6.17,0,0,0,1.27-3.67,4.5,4.5,0,0,0-.28-1.66l.27-.08a4.57,4.57,0,0,1,.3,1.74,6.38,6.38,0,0,1-1.31,3.79l-.25-.12Zm1-5.33Z" transform="translate(3.96 2.44)"/><path class="cls-21" d="M19.85,160l.22,1.8c1.53,4.14,3.74,10.76,3.74,10.76l-.53-2.38-.54-1.6h0L21.85,166h0l-1-2.87h0l-.77-2.31h0l-.25-.77Zm-3.72-1.87h0l-.19,0h-.06c-.66,0-1.36.07-2.1.07H12.69c0,.23.09.49.13.76h.33c2.78.18,2.48,2.22,2.4,5.43s.23,3-.75,3.39c-.75.34-.57,2.25.82,2.73a.28.28,0,0,1,0-.09,1.58,1.58,0,0,1-.73-.8l.14,0h0l-.14,0a1.2,1.2,0,0,1-.09-.45,1.44,1.44,0,0,1,.79-1.23c0-4.82.05-7.81.35-7.81h0v-.08h0v0h0v0a.61.61,0,0,1,0-.14v-.19h0c0-.58.1-1.09.16-1.54Zm1.82-.2-.28,0c0,.18-.06.37-.09.58a1.94,1.94,0,0,1,.36-.15c0-.16,0-.32,0-.47Zm-9.67-.26a5.76,5.76,0,0,1,.14,1l-.17,2.48a4,4,0,0,0,.14.76s.06-.17.1-.59c.22-2.15.23-3.09,1.25-3.09h.11c1.06,0,.31,2.56.87,2.81.1-1.18.22-2.17.35-3-.44,0-.89-.09-1.34-.16h-.1c-.44-.07-.87-.15-1.31-.25h0Zm-.22-3.47h0a5.79,5.79,0,0,0,2.62-.52,2.12,2.12,0,0,0,.71-.51l.25.13s-.94,1.14-3.57,1.14h0a15.78,15.78,0,0,1-5.11-1l.11-.22a15.41,15.41,0,0,0,5,1ZM-.1,150.48a15.87,15.87,0,0,0,1.51,1.72l0,0a13.5,13.5,0,0,0,2.71,2l.1.06,0,0h0a14.74,14.74,0,0,0,2.19,1l.09,0a20.25,20.25,0,0,0,3.53.88l.27,0h.07l.15,0h0c.31,0,.63.08.93.1a.37.37,0,0,1,.29-.21c.11,0,.21.09.31.26.54,0,1.06,0,1.57,0h.92c.67,0,1.3-.07,1.88-.13a3.27,3.27,0,0,1,.58-1.09c0-.05.09-.08.11-.11l.35-.33v.08a1.49,1.49,0,0,1,.7-.19h0a1.69,1.69,0,0,1,1.26.61h0l0,0a.49.49,0,0,1,.12.34.31.31,0,0,1,0,.16l.46-.11h0c-.09-.37-.46-1.49-1.51-1.49l-.27,0c-1.48.24-1,1.73-3.6,1.73h-.16c-2.78-.07-8.63-.5-5.78-.93a6.77,6.77,0,0,0,3.1-1h-.25L12,154c.46-.41.45-.9-.15-1.45a1,1,0,0,0-.71-.22H11a18.18,18.18,0,0,1-4.2.87,9.9,9.9,0,0,1-1.45.11A5.75,5.75,0,0,1,1,151.51a11,11,0,0,0-1.08-1Zm4.58,6Zm-7.06-6.13a3.36,3.36,0,0,0,.94,2.32c1.72,1.92,5.48,2.53,4.8,7.16-.31,2.18-.05,2.94.39,2.94S4.63,162,5,161.17a9,9,0,0,1,.68-2.5,8,8,0,0,1,1-1.4c-.53-.16-1-.34-1.57-.55l0,0h0c-.09,0-.19-.07-.28-.12a5.47,5.47,0,0,1,.23,1.57,6.38,6.38,0,0,1-1.31,3.79l-.25-.12a6.17,6.17,0,0,0,1.27-3.67,4.5,4.5,0,0,0-.28-1.66l.07,0a17.22,17.22,0,0,1-3.1-1.78h0a15.54,15.54,0,0,1-3.11-3h0c-.32-.42-.63-.85-.92-1.31Z" transform="translate(3.96 2.44)"/><path class="cls-22" d="M12,154l-.3.05H12s0,0,0-.05Z" transform="translate(3.96 2.44)"/><path class="cls-23" d="M19.09,157.76c-.34.06-.72.12-1.14.17,0,.15,0,.31,0,.47a1.35,1.35,0,0,1,.28,0,.69.69,0,0,1,.49.19,19.29,19.29,0,0,1,1.36,3.25l-.22-1.8-.56-1.65h0l-.2-.59ZM18.31,156l-.09.13.18,0s0,0,0-.06h0l0,0Z" transform="translate(3.96 2.44)"/><path class="cls-23" d="M11.07,158.1c-.13.78-.25,1.77-.35,3a.17.17,0,0,0,.1,0c.72,0-.35-2.1,2-2.11,0-.27-.09-.53-.13-.76l-.35,0h0l-1.23-.09Zm.78-1.9a.37.37,0,0,0-.29.21l.6.05c-.1-.17-.2-.26-.31-.26Z" transform="translate(3.96 2.44)"/><path class="cls-23" d="M6.71,157.27a8,8,0,0,0-1,1.4,9,9,0,0,0-.68,2.5l.15-.34c.67-1.66.56-2.18,1.51-2.18l.37,0c.74.07,1,1.54,1.18,2.48l.17-2.48a5.76,5.76,0,0,0-.14-1c-.52-.11-1-.25-1.57-.4Z" transform="translate(3.96 2.44)"/><path class="cls-22" d="M15.61,170.44a.28.28,0,0,0,0,.09,1.71,1.71,0,0,0,.48.09,1.9,1.9,0,0,1-.49-.18Zm.32-10.29c-.3,0-.39,3-.35,7.81a1.71,1.71,0,0,1,.39-.17c0-1-.07-1.88-.09-2.71h0v0h0c0-.66,0-1.29,0-1.87,0-.35,0-.69,0-1h0v-.45h0c0-.57,0-1.09.07-1.57Z" transform="translate(3.96 2.44)"/><path class="cls-22" d="M11,152.35a14.79,14.79,0,0,0-2.35.49c-.58.14-1.2.28-1.85.38a18.18,18.18,0,0,0,4.2-.87Z" transform="translate(3.96 2.44)"/><path class="cls-24" d="M11.4,153.17a2.12,2.12,0,0,1-.71.51,5.79,5.79,0,0,1-2.62.52h0a15.41,15.41,0,0,1-5-1l-.11.22a15.78,15.78,0,0,0,5.11,1h0c2.63,0,3.55-1.11,3.57-1.14l-.25-.13Z" transform="translate(3.96 2.44)"/><path class="cls-24" d="M4.48,156.49Zm.07,0-.07,0a4.5,4.5,0,0,1,.28,1.66,6.17,6.17,0,0,1-1.27,3.67l.25.12a6.38,6.38,0,0,0,1.31-3.79,5.47,5.47,0,0,0-.23-1.57l-.27-.11Z" transform="translate(3.96 2.44)"/><path class="cls-25" d="M23.84,175.05a1.87,1.87,0,0,0,2.27.56,1.26,1.26,0,0,0,.68-1.86,1.87,1.87,0,0,0-2.27-.56,1.26,1.26,0,0,0-.68,1.86Z" transform="translate(3.96 2.44)"/><path class="cls-12" d="M23.71,175.11l.13-.06L24,175a1.57,1.57,0,0,0,1.34.67,1.87,1.87,0,0,0,.73-.15,1.25,1.25,0,0,0,.8-1.11,1.07,1.07,0,0,0-.18-.59,1.59,1.59,0,0,0-1.35-.67,1.82,1.82,0,0,0-.72.15,1.26,1.26,0,0,0-.81,1.11A1,1,0,0,0,24,175l-.13.06-.13.06a1.29,1.29,0,0,1-.22-.71,1.49,1.49,0,0,1,1-1.32,2.14,2.14,0,0,1,.86-.18,1.93,1.93,0,0,1,1.61.79,1.36,1.36,0,0,1,.21.71,1.47,1.47,0,0,1-1,1.32,2.11,2.11,0,0,1-.86.18,1.92,1.92,0,0,1-1.6-.79Z" transform="translate(3.96 2.44)"/><path class="cls-26" d="M24.5,174.49a.43.43,0,0,1-.19,0,.35.35,0,0,1-.07-.54.53.53,0,0,1,.43-.21.41.41,0,0,1,.19,0,.35.35,0,0,1,.08.54.6.6,0,0,1-.44.21Zm.39.58a1.29,1.29,0,0,0,.55-.11.89.89,0,0,0,.48-1.31l-.07-.09a1.16,1.16,0,0,1,.53.42.89.89,0,0,1-.49,1.31,1.29,1.29,0,0,1-.55.11,1.23,1.23,0,0,1-1-.43,1.3,1.3,0,0,0,.52.1Zm.76-1.76a.72.72,0,0,1-.45.28.64.64,0,0,1-.2,0,.85.85,0,0,1-.47-.15,1,1,0,0,0-.43,1.47,1.44,1.44,0,0,0,1.21.59,1.57,1.57,0,0,0,.65-.13,1,1,0,0,0,.56-1.53,1.34,1.34,0,0,0-.87-.56Z" transform="translate(3.96 2.44)"/><path class="cls-27" d="M25.85,173.56l.07.09a.89.89,0,0,1-.48,1.31,1.29,1.29,0,0,1-.55.11,1.3,1.3,0,0,1-.52-.1,1.23,1.23,0,0,0,1,.43,1.29,1.29,0,0,0,.55-.11.89.89,0,0,0,.49-1.31,1.16,1.16,0,0,0-.53-.42Z" transform="translate(3.96 2.44)"/><path class="cls-28" d="M24.67,173.7a.53.53,0,0,0-.43.21.35.35,0,0,0,.07.54.43.43,0,0,0,.19,0,.6.6,0,0,0,.44-.21.35.35,0,0,0-.08-.54.41.41,0,0,0-.19,0Z" transform="translate(3.96 2.44)"/><path class="cls-25" d="M24.44,169.48l1.14,3.39a.49.49,0,0,1-.41.61l-.17,0a.59.59,0,0,1-.57-.37l-1.55-4.59a2.67,2.67,0,0,0,1.56.94Z" transform="translate(3.96 2.44)"/><path class="cls-12" d="M24.29,173.17l-1.55-4.59.26-.11a2.5,2.5,0,0,0,1.46.89l0,.12,0-.12h.1l1.16,3.47a.45.45,0,0,1,0,.16.63.63,0,0,1-.55.59.64.64,0,0,1-.2,0,.74.74,0,0,1-.71-.45Zm.28-.07a.44.44,0,0,0,.43.28l.13,0a.4.4,0,0,0,.33-.36l0-.1-1.12-3.32A2.51,2.51,0,0,1,23.2,169l1.37,4.07Z" transform="translate(3.96 2.44)"/><path class="cls-25" d="M23.6,167l.84,2.48a2.67,2.67,0,0,1-1.56-.94L22,165.92A2.88,2.88,0,0,0,23.6,167Z" transform="translate(3.96 2.44)"/><path class="cls-12" d="M24.42,169.6a2.92,2.92,0,0,1-1.66-1l0,0L21.85,166l.27-.1a2.73,2.73,0,0,0,1.51,1l0,.12,0-.12h.09l.92,2.74-.22,0Zm-.19-.29-.75-2.21a2.7,2.7,0,0,1-1.15-.64l.68,2a2.87,2.87,0,0,0,1.22.82Z" transform="translate(3.96 2.44)"/><path class="cls-25" d="M19.43,158.32l-.53-1.58a.49.49,0,0,1,.41-.61.63.63,0,0,1,.74.34l.89,2.62a2.45,2.45,0,0,1-1.51-.77Z" transform="translate(3.96 2.44)"/><path class="cls-12" d="M20.92,159.21a2.63,2.63,0,0,1-1.6-.82l.11-.08.14,0-.14,0-.11.08,0,0-.54-1.6a.51.51,0,0,1,0-.17.65.65,0,0,1,.55-.59l.2,0a.76.76,0,0,1,.72.45l.94,2.79-.22,0Zm-.19-.27-.82-2.44a.45.45,0,0,0-.43-.27h-.13a.4.4,0,0,0-.33.36l0,.1.52,1.56a2.52,2.52,0,0,0,1.17.68Z" transform="translate(3.96 2.44)"/><path class="cls-25" d="M22.55,163.87,23.6,167A2.88,2.88,0,0,1,22,165.92L21,163a2.57,2.57,0,0,0,1.53.85Z" transform="translate(3.96 2.44)"/><path class="cls-12" d="M23.57,167.11a3,3,0,0,1-1.7-1.12v0l-1-2.92.25-.1a2.47,2.47,0,0,0,1.44.8l0,.12,0-.12h.09l1.15,3.4-.24,0Zm-.18-.3-1-2.84a2.46,2.46,0,0,1-1.11-.5l.81,2.4a3,3,0,0,0,1.26.94Z" transform="translate(3.96 2.44)"/><path class="cls-25" d="M20.94,159.09l.71,2.12a2.2,2.2,0,0,1-1.42-.51l-.8-2.38a2.45,2.45,0,0,0,1.51.77Z" transform="translate(3.96 2.44)"/><path class="cls-12" d="M20.13,160.79l0,0-.81-2.42.25-.11A2.31,2.31,0,0,0,21,159v0h.1l.79,2.34h-.26a2.36,2.36,0,0,1-1.45-.54Zm1.33.29-.64-1.88a2.33,2.33,0,0,1-1.09-.46l.64,1.9a2,2,0,0,0,1.09.44Z" transform="translate(3.96 2.44)"/><path class="cls-25" d="M21.65,161.21l.9,2.66A2.57,2.57,0,0,1,21,163l-.79-2.32a2.2,2.2,0,0,0,1.42.51Z" transform="translate(3.96 2.44)"/><path class="cls-12" d="M22.53,164a2.67,2.67,0,0,1-1.63-.88l0,0L20,160.32l.38.3a2,2,0,0,0,1.24.47h.18l1,2.93-.22,0Zm-.19-.27-.8-2.38a2.22,2.22,0,0,1-1-.3l.65,1.94a2.67,2.67,0,0,0,1.19.74Z" transform="translate(3.96 2.44)"/><path class="cls-29" d="M19.86,157.61l-.15,0h0l-.1,0-.23.05.18.55a3.48,3.48,0,0,0,.52.41c-.1-.41-.17-.76-.22-1.06Z" transform="translate(3.96 2.44)"/><path class="cls-30" d="M19.38,157.71h0l-.13,0,.19.56.12,0a3.29,3.29,0,0,0,.54.43h0a3.48,3.48,0,0,1-.52-.41l-.18-.55Z" transform="translate(3.96 2.44)"/><path class="cls-29" d="M19.73,158.74l.64,1.9a2.2,2.2,0,0,0,.32.21c-.22-.71-.39-1.32-.53-1.85a2.34,2.34,0,0,1-.43-.26Z" transform="translate(3.96 2.44)"/><path class="cls-30" d="M19.54,158.24l-.12,0v0l.73,2.16.18.14a3,3,0,0,0,.35.23h0a2.2,2.2,0,0,1-.32-.21l-.64-1.9a2.34,2.34,0,0,0,.43.26l0-.16c0-.06,0-.12,0-.17a3.29,3.29,0,0,1-.54-.43Z" transform="translate(3.96 2.44)"/><path class="cls-29" d="M23.2,169l1.37,4.07a.44.44,0,0,0,.43.28l.13,0a.4.4,0,0,0,.33-.36l0-.1,0-.12c-.64-.2-1.3-1.61-2-3.6L23.2,169Z" transform="translate(3.96 2.44)"/><path class="cls-30" d="M23,168.84l1.45,4.29a.59.59,0,0,0,.57.37l.17,0a.49.49,0,0,0,.41-.61l0-.07h0l-.15,0,0,.12,0,.1a.4.4,0,0,1-.33.36l-.13,0a.44.44,0,0,1-.43-.28L23.2,169l.19.15h0a3.36,3.36,0,0,1-.41-.34Z" transform="translate(3.96 2.44)"/><path class="cls-29" d="M22.33,166.46l.68,2,.22.22c-.22-.65-.45-1.34-.68-2.07a1.24,1.24,0,0,1-.22-.18Z" transform="translate(3.96 2.44)"/><path class="cls-30" d="M22.11,166.25l.77,2.29.1.3a3.36,3.36,0,0,0,.41.34l-.07-.22-.09-.25-.22-.22-.68-2-.22-.21Z" transform="translate(3.96 2.44)"/><path class="cls-29" d="M21.32,163.48l.81,2.39.27.29c-.26-.81-.52-1.65-.79-2.49l-.29-.19Z" transform="translate(3.96 2.44)"/><path class="cls-30" d="M21.11,163.3l.88,2.62.12.33.22.21a1.24,1.24,0,0,0,.22.18l-.07-.22-.08-.26-.27-.29-.81-2.39-.21-.18Z" transform="translate(3.96 2.44)"/><path class="cls-29" d="M20.5,161l.65,1.94.32.29c-.14-.46-.29-.91-.44-1.37q-.13-.37-.24-.72a1.55,1.55,0,0,1-.29-.14Z" transform="translate(3.96 2.44)"/><path class="cls-30" d="M20.16,160.48l.07.22L21,163l.09.28.21.18.29.19a1.59,1.59,0,0,1-.07-.2,1.72,1.72,0,0,0-.07-.21l-.32-.29L20.5,161a1.55,1.55,0,0,0,.29.14s0-.11-.05-.16a1.42,1.42,0,0,1,0-.16,3,3,0,0,1-.35-.23l-.18-.14Z" transform="translate(3.96 2.44)"/><path class="cls-26" d="M21.34,160.91h-.07a.26.26,0,0,0-.16.1,2,2,0,0,0,.35.06l-.06-.16Z" transform="translate(3.96 2.44)"/><path class="cls-15" d="M21.4,160.92l.06.16h.14v0a.23.23,0,0,0-.19-.15Z" transform="translate(3.96 2.44)"/><path class="cls-26" d="M23.88,169.45v0a.27.27,0,0,0,.26.16h.07l.1,0h0a1.87,1.87,0,0,1-.42-.13h0Z" transform="translate(3.96 2.44)"/><path class="cls-15" d="M23.9,169.45a1.87,1.87,0,0,0,.42.13h0a1.87,1.87,0,0,1-.42-.13Zm0,0Z" transform="translate(3.96 2.44)"/><path class="cls-26" d="M23,166.94l.74,2.17a2.07,2.07,0,0,0,.46.2l-.75-2.21-.07,0h0a2.32,2.32,0,0,1-.37-.13Z" transform="translate(3.96 2.44)"/><path class="cls-15" d="M23.41,167.08l.07,0,.75,2.21a2.07,2.07,0,0,1-.46-.2l.11.34h0a1.87,1.87,0,0,0,.42.13.19.19,0,0,0,.09-.22l-.76-2.23-.08,0-.16,0Zm0,0h0Zm0,0Z" transform="translate(3.96 2.44)"/><path class="cls-26" d="M22,163.85l.93,2.73a1.77,1.77,0,0,0,.48.23l-1-2.84-.2,0-.25-.08Z" transform="translate(3.96 2.44)"/><path class="cls-15" d="M22.23,163.93l.2,0,1,2.84a1.77,1.77,0,0,1-.48-.23l.12.36a2.32,2.32,0,0,0,.37.13h0l.16,0,.08,0L22.59,164h-.06a1.57,1.57,0,0,1-.3,0Z" transform="translate(3.96 2.44)"/><path class="cls-26" d="M21.11,161.28l.76,2.25a2.68,2.68,0,0,0,.47.18l-.8-2.38a2,2,0,0,1-.43-.05Z" transform="translate(3.96 2.44)"/><path class="cls-15" d="M21.11,161a.17.17,0,0,0,0,.17l0,.09a2,2,0,0,0,.43.05l.8,2.38a2.68,2.68,0,0,1-.47-.18l.11.32.25.08a1.57,1.57,0,0,0,.3,0h.06l-1-2.9h-.14a2,2,0,0,1-.35-.06Z" transform="translate(3.96 2.44)"/><path class="cls-25" d="M6.52,155.48a19.94,19.94,0,0,0,3.56.89l.53.06a3.62,3.62,0,0,0,1.74,1.64,24,24,0,0,1-2.6-.25h-.1q-.64-.1-1.29-.24a3.41,3.41,0,0,1-1.84-2.09Z" transform="translate(3.96 2.44)"/><path class="cls-12" d="M9.73,157.94h-.1c-.44-.07-.87-.15-1.31-.25h0a3.47,3.47,0,0,1-1.9-2.17l.14,0-.14,0-.07-.23.27.1a20.25,20.25,0,0,0,3.53.88l.52.06h.08l0,.07A3.55,3.55,0,0,0,12.42,158l-.08.22a24,24,0,0,1-2.61-.25Zm-.05-.25h.1c.69.11,1.37.18,2,.22a3.64,3.64,0,0,1-1.31-1.38l-.45-.06a19.92,19.92,0,0,1-3.31-.8,3.33,3.33,0,0,0,1.68,1.78c.42.08.84.17,1.26.23Z" transform="translate(3.96 2.44)"/><path class="cls-25" d="M10.61,156.43a24.42,24.42,0,0,0,3.94.18A3.52,3.52,0,0,0,15.91,158a29.68,29.68,0,0,1-3.56,0,3.62,3.62,0,0,1-1.74-1.64Z" transform="translate(3.96 2.44)"/><path class="cls-12" d="M12.34,158.19h0l0,0a3.72,3.72,0,0,1-1.8-1.69l.14,0-.14,0-.09-.2.25,0a23.86,23.86,0,0,0,3.1.19h.92l0,.08a3.35,3.35,0,0,0,1.3,1.36l.32.19-.39,0c-.68,0-1.4.07-2.16.07l-1.42,0Zm1.42-.21c.62,0,1.2,0,1.77,0a3.42,3.42,0,0,1-1.07-1.2h-.73a23.93,23.93,0,0,1-2.88-.16A3.58,3.58,0,0,0,12.39,158l1.37,0Z" transform="translate(3.96 2.44)"/><path class="cls-25" d="M17.94,156.31c.59-.09,1.09-.18,1.47-.26l.81-.18a1,1,0,0,1,1.14.47.72.72,0,0,1-.57.93h0s-.56.15-1.45.32a3.69,3.69,0,0,1-1.4-1.28Z" transform="translate(3.96 2.44)"/><path class="cls-12" d="M19.26,157.69a4,4,0,0,1-1.46-1.32l.14-.06,0,.12,0-.12-.14.06-.08-.15.19,0c.59-.09,1.09-.18,1.47-.26l.77-.17h0a1.22,1.22,0,0,1,.32,0,1.07,1.07,0,0,1,1,.59.86.86,0,0,1,.05.27.91.91,0,0,1-.72.82l-.19.05h0c-.23.06-.67.16-1.26.28h-.07l0,0Zm.11-.23c.85-.17,1.34-.3,1.38-.31h0a.64.64,0,0,0,.5-.58.58.58,0,0,0,0-.19.75.75,0,0,0-.72-.43.85.85,0,0,0-.23,0l-.13,0h0l-.09,0-.6.14c-.34.07-.78.15-1.29.23a3.7,3.7,0,0,0,1.21,1.06Zm.92-1.49Zm0,0,0,0,0,0Z" transform="translate(3.96 2.44)"/><path class="cls-25" d="M14.55,156.61c1,0,1.85-.1,2.62-.2l.77-.1a3.69,3.69,0,0,0,1.4,1.28,30.39,30.39,0,0,1-3.43.44,3.52,3.52,0,0,1-1.36-1.42Z" transform="translate(3.96 2.44)"/><path class="cls-12" d="M15.82,158.12a3.59,3.59,0,0,1-1.4-1.46l.13,0v0l-.13,0-.08-.16h.21c.95,0,1.83-.1,2.59-.2l.77-.1H18l0,.08a3.69,3.69,0,0,0,1.36,1.23l.29.15-.33.07a33.65,33.65,0,0,1-3.46.44h-.06l0,0Zm.13-.22c1.2-.09,2.24-.23,3-.37a3.8,3.8,0,0,1-1.13-1.08l-.67.09c-.72.08-1.54.15-2.42.18A3.3,3.3,0,0,0,16,157.9Z" transform="translate(3.96 2.44)"/><path class="cls-25" d="M-.94,149.48a14.71,14.71,0,0,0,2.26,2.82,2.77,2.77,0,0,0,.23,2.3,15.61,15.61,0,0,1-3.09-3,2.87,2.87,0,0,1,.6-2.12Z" transform="translate(3.96 2.44)"/><path class="cls-12" d="M-1.66,151.66l0,0v0a2.4,2.4,0,0,1,0-.37,3,3,0,0,1,.65-1.83l.14-.17.11.19a14.41,14.41,0,0,0,2.24,2.79l.05.05,0,.06a2.69,2.69,0,0,0-.15.85,2.86,2.86,0,0,0,.37,1.37l-.23.14a15.32,15.32,0,0,1-3.11-3Zm2.86,2.51a2.81,2.81,0,0,1-.18-1,2.7,2.7,0,0,1,.14-.85,14.94,14.94,0,0,1-2.11-2.6,2.7,2.7,0,0,0-.46,1.51c0,.1,0,.21,0,.32a15.66,15.66,0,0,0,2.6,2.61Z" transform="translate(3.96 2.44)"/><path class="cls-25" d="M4.16,154.41a15.13,15.13,0,0,0,2.36,1.07,3.41,3.41,0,0,0,1.84,2.09,20,20,0,0,1-3.16-1,3.36,3.36,0,0,1-1-2.2Z" transform="translate(3.96 2.44)"/><path class="cls-12" d="M5.14,156.72l0,0,0,0A3.49,3.49,0,0,1,4,154.41H4v-.23l.24.13a16.33,16.33,0,0,0,2.34,1.06l.06,0,0,.06a3.25,3.25,0,0,0,1.78,2l-.12.22a19.94,19.94,0,0,1-3.18-1Zm2.5.55a3.33,3.33,0,0,1-1.25-1.71,14.54,14.54,0,0,1-2.07-.92,3.37,3.37,0,0,0,1,1.87,18.75,18.75,0,0,0,2.34.76Z" transform="translate(3.96 2.44)"/><path class="cls-25" d="M-3.21,146.86a1,1,0,0,1,1.15.45,16.33,16.33,0,0,0,1.12,2.17,2.87,2.87,0,0,0-.6,2.12,17,17,0,0,1-2.22-3.79.72.72,0,0,1,.55-.95Z" transform="translate(3.96 2.44)"/><path class="cls-12" d="M-3.9,147.85a.75.75,0,0,1-.06-.29.88.88,0,0,1,.7-.81,1,1,0,0,1,.35-.05,1.07,1.07,0,0,1,1,.57,16.8,16.8,0,0,0,1.11,2.16l0,.06,0,0a2.79,2.79,0,0,0-.61,1.7c0,.11,0,.23,0,.35l-.27.08a16.85,16.85,0,0,1-2.24-3.82Zm.73-.87a.63.63,0,0,0-.5.58.54.54,0,0,0,0,.21,17.1,17.1,0,0,0,1.91,3.38,3,3,0,0,1,.6-1.68,18.12,18.12,0,0,1-1.09-2.11.76.76,0,0,0-.71-.42.73.73,0,0,0-.25,0l0-.12,0,.12Z" transform="translate(3.96 2.44)"/><path class="cls-25" d="M1.32,152.3a14,14,0,0,0,2.84,2.11,3.36,3.36,0,0,0,1,2.2,17.22,17.22,0,0,1-3.65-2,2.77,2.77,0,0,1-.23-2.3Z" transform="translate(3.96 2.44)"/><path class="cls-12" d="M1.45,154.69l0,0v0a3,3,0,0,1-.4-1.46,2.82,2.82,0,0,1,.16-.93l.08-.21.17.17a13.4,13.4,0,0,0,2.81,2.09l.06,0v.07a3.25,3.25,0,0,0,1,2.12l-.18.18a16.68,16.68,0,0,1-3.69-2Zm3.29,1.59A3.26,3.26,0,0,1,4,154.47a13.73,13.73,0,0,1-2.62-1.92,3,3,0,0,0-.08.64,2.87,2.87,0,0,0,.36,1.34,16.82,16.82,0,0,0,3.07,1.75Z" transform="translate(3.96 2.44)"/><path class="cls-29" d="M-1.38,151h0v.44a.34.34,0,0,1,0,.1,15.66,15.66,0,0,0,2.6,2.61,2.7,2.7,0,0,1-.16-.7A14.86,14.86,0,0,1-1.38,151Z" transform="translate(3.96 2.44)"/><path class="cls-30" d="M-1.41,151.46s0,.08,0,.13l-.13,0a15.43,15.43,0,0,0,2.82,2.78,3,3,0,0,1-.26-.94H1a2.7,2.7,0,0,0,.16.7,15.66,15.66,0,0,1-2.6-2.61.34.34,0,0,0,0-.1Zm0-.44h0c0,.07,0,.14,0,.22a.28.28,0,0,1,0,.09V151Z" transform="translate(3.96 2.44)"/><path class="cls-29" d="M-3.59,147.28a.57.57,0,0,0-.08.28.54.54,0,0,0,0,.21,17.1,17.1,0,0,0,1.91,3.38,3.65,3.65,0,0,1,.06-.49,17.17,17.17,0,0,1-1.94-3.38Z" transform="translate(3.96 2.44)"/><path class="cls-30" d="M-3.64,147.13a.63.63,0,0,0-.12.68,17,17,0,0,0,2.22,3.79l0,0,.13,0c0-.05,0-.09,0-.13v-.13a.28.28,0,0,0,0-.09c0-.08,0-.15,0-.22l-.12,0-.12-.17,0,0v0l0-.14h0a3.65,3.65,0,0,0-.06.49,17.1,17.1,0,0,1-1.91-3.38.54.54,0,0,1,0-.21.57.57,0,0,1,.08-.28.3.3,0,0,0,0-.08v-.07Z" transform="translate(3.96 2.44)"/><path class="cls-29" d="M7.37,156.68a4.15,4.15,0,0,0,1,.78c.42.08.84.17,1.26.23h.1c.69.11,1.37.18,2,.22l-.13-.09a4,4,0,0,1-.57-.47l-1.22-.15h-.1L8.49,157c-.37-.08-.75-.18-1.12-.28Z" transform="translate(3.96 2.44)"/><path class="cls-30" d="M11.11,157.36a4,4,0,0,0,.57.47,4,4,0,0,1-.57-.47Zm-3.74-.68a4,4,0,0,0,1.07.78l-.06.11,1.27.24h.1c.78.12,1.55.19,2.29.23l-.23-.13c-.66,0-1.34-.11-2-.22h-.1c-.42-.06-.84-.15-1.26-.23a4.15,4.15,0,0,1-1-.78Z" transform="translate(3.96 2.44)"/><path class="cls-29" d="M11.54,157.4a4.46,4.46,0,0,0,.85.55l1.37,0c.62,0,1.2,0,1.77,0a3.5,3.5,0,0,1-.53-.46c-.37,0-.74,0-1.12,0l-1.4,0-.94-.06Z" transform="translate(3.96 2.44)"/><path class="cls-30" d="M11.11,157.36a4,4,0,0,0,.57.47l.13.09.23.13.31,0c.48,0,1,0,1.41,0,.68,0,1.32,0,1.93-.07a.91.91,0,0,1-.16-.11c-.57,0-1.15,0-1.77,0l-1.37,0a4.46,4.46,0,0,1-.85-.55l-.21,0-.22,0Z" transform="translate(3.96 2.44)"/><path class="cls-29" d="M21.25,156.5a.85.85,0,0,1-.33.16h0s-.55.15-1.44.32l-.66.11a4.78,4.78,0,0,0,.55.37c.85-.17,1.34-.3,1.38-.31h0a.64.64,0,0,0,.5-.58v-.07Z" transform="translate(3.96 2.44)"/><path class="cls-30" d="M21.37,156.39a.43.43,0,0,1-.12.11v.07a.64.64,0,0,1-.5.58h0s-.53.14-1.38.31l.05,0,.12.06c.77-.15,1.22-.27,1.25-.28h0a.72.72,0,0,0,.58-.88Z" transform="translate(3.96 2.44)"/><path class="cls-29" d="M16.26,157.4l-.22,0-.68,0a4.12,4.12,0,0,0,.59.44l.22,0,.09-.48Zm2.21-.26-.66.1s0,.06,0,.1l-.06.29h0v.08c.48-.06.9-.13,1.28-.19a4.4,4.4,0,0,1-.52-.39Z" transform="translate(3.96 2.44)"/><path class="cls-30" d="M15.36,157.46H15a3.5,3.5,0,0,0,.53.46.91.91,0,0,0,.16.11h.22l.24,0s0-.08,0-.13l-.22,0a4.12,4.12,0,0,1-.59-.44Zm3.46-.37-.16,0-.19,0a4.4,4.4,0,0,0,.52.39c-.38.06-.8.13-1.28.19l0,.13c.63-.08,1.19-.18,1.65-.26l.2,0-.12-.06-.05,0a4.78,4.78,0,0,1-.55-.37Z" transform="translate(3.96 2.44)"/><path class="cls-29" d="M4.71,155.73a4.21,4.21,0,0,0,.59.78,18.75,18.75,0,0,0,2.34.76,3.49,3.49,0,0,1-.75-.73c-.52-.16-1-.34-1.55-.54l-.63-.27Z" transform="translate(3.96 2.44)"/><path class="cls-30" d="M4.71,155.73a3.78,3.78,0,0,0,.61.8l-.09.09a20.74,20.74,0,0,0,3.13.95h0l.06-.11a4,4,0,0,1-1.07-.78l-.24-.07-.24-.07a3.49,3.49,0,0,0,.75.73,18.75,18.75,0,0,1-2.34-.76,4.21,4.21,0,0,1-.59-.78Z" transform="translate(3.96 2.44)"/><path class="cls-29" d="M1.38,153.75a3.28,3.28,0,0,0,.29.78,16.82,16.82,0,0,0,3.07,1.75,4,4,0,0,1-.45-.75A15.32,15.32,0,0,1,1.69,154l-.31-.24Z" transform="translate(3.96 2.44)"/><path class="cls-30" d="M1,153.47a3,3,0,0,0,.26.94l.25.19a17.22,17.22,0,0,0,3.65,2h0l.09-.09a3.78,3.78,0,0,1-.61-.8l-.22-.1-.2-.1a4,4,0,0,0,.45.75,16.82,16.82,0,0,1-3.07-1.75,3.28,3.28,0,0,1-.29-.78l-.18-.14L1,153.47Z" transform="translate(3.96 2.44)"/><path class="cls-25" d="M-1.41,150.34a2.85,2.85,0,0,0,0,.65l-.13-.17a3.37,3.37,0,0,1,.12-.48Z" transform="translate(3.96 2.44)"/><path class="cls-12" d="M-1.65,150.88l0,0v0a4.05,4.05,0,0,1,.12-.5l.29,0a2.64,2.64,0,0,0,0,.28c0,.11,0,.23,0,.35l-.27.07-.12-.17Z" transform="translate(3.96 2.44)"/><path class="cls-26" d="M-1.19,150.16l-.07.19v0A13.34,13.34,0,0,0,1,153a2.28,2.28,0,0,1,.06-.39,18.25,18.25,0,0,1-2.28-2.42Z" transform="translate(3.96 2.44)"/><path class="cls-26" d="M4.42,155.09h0l.07,0-.07,0Z" transform="translate(3.96 2.44)"/><polygon class="cls-15" points="8.38 157.53 8.38 157.53 8.38 157.53 8.38 157.53 8.38 157.53 8.38 157.53"/><path class="cls-26" d="M-2.67,147.6a11.69,11.69,0,0,0,1.21,2.47s.05-.11.08-.16a10.53,10.53,0,0,1-1.29-2.31Z" transform="translate(3.96 2.44)"/><path class="cls-15" d="M-1.38,149.91c0,.05-.05.11-.08.16l.17.28h0l.07-.19-.19-.25Z" transform="translate(3.96 2.44)"/><path class="cls-26" d="M1.34,152.81a2.25,2.25,0,0,0,0,.38v0a12.83,12.83,0,0,0,1.87,1.22l.89.47s0,0,0,0a26.38,26.38,0,0,1-2.72-2.05Z" transform="translate(3.96 2.44)"/><path class="cls-15" d="M4.06,154.86s0,0,0,0l.35.19h0l-.36-.23Zm-3-2.28A2.28,2.28,0,0,0,1,153l.28.24v0a2.25,2.25,0,0,1,0-.38l-.25-.23Z" transform="translate(3.96 2.44)"/><path class="cls-15" d="M-1.29,150.35l0,0v0h0Z" transform="translate(3.96 2.44)"/><path class="cls-25" d="M15,169.6a1.76,1.76,0,0,0,2.1.9,1.34,1.34,0,0,0,1.09-1.72,1.74,1.74,0,0,0-2.09-.9A1.34,1.34,0,0,0,15,169.6Z" transform="translate(3.96 2.44)"/><path class="cls-12" d="M16.62,170.69a1.83,1.83,0,0,1-1.74-1.05l.14,0,.14,0a1.54,1.54,0,0,0,1.46.88,1.88,1.88,0,0,0,.46-.06,1.33,1.33,0,0,0,1.07-1.2,1.69,1.69,0,0,0-.07-.38,1.55,1.55,0,0,0-1.46-.88,1.76,1.76,0,0,0-.46.06,1.31,1.31,0,0,0-1.07,1.2,1.06,1.06,0,0,0,.07.38l-.14,0-.14,0a1.2,1.2,0,0,1-.09-.45,1.56,1.56,0,0,1,1.28-1.43,2.08,2.08,0,0,1,.55-.07,1.84,1.84,0,0,1,1.74,1.05,1.42,1.42,0,0,1,.08.45,1.56,1.56,0,0,1-1.28,1.43,2.41,2.41,0,0,1-.53.07Z" transform="translate(3.96 2.44)"/><path class="cls-26" d="M16.27,169.8a1.45,1.45,0,0,0,.35,0,1,1,0,0,0,.77-1.22l-.05-.09a1,1,0,0,1,.42.49,1,1,0,0,1-.77,1.21,1.45,1.45,0,0,1-.35,0,1.21,1.21,0,0,1-1.08-.58,1.39,1.39,0,0,0,.71.19Zm-.39-.64a.36.36,0,0,1-.25-.08c-.17-.12-.15-.37,0-.54a.62.62,0,0,1,.4-.15.44.44,0,0,1,.25.08.34.34,0,0,1,0,.54.64.64,0,0,1-.4.15Zm.22-1a1.1,1.1,0,0,0-.8,1.39,1.39,1.39,0,0,0,1.32.79,2,2,0,0,0,.41,0,1.11,1.11,0,0,0,.9-1.42,1.15,1.15,0,0,0-.64-.64.85.85,0,0,1-.54.21h0a.78.78,0,0,1-.62-.28Z" transform="translate(3.96 2.44)"/><path class="cls-27" d="M17.34,168.45l.05.09a1,1,0,0,1-.77,1.22,1.45,1.45,0,0,1-.35,0,1.39,1.39,0,0,1-.71-.19,1.21,1.21,0,0,0,1.08.58,1.45,1.45,0,0,0,.35,0,1,1,0,0,0,.77-1.21,1,1,0,0,0-.42-.49Z" transform="translate(3.96 2.44)"/><path class="cls-28" d="M16.07,168.39a.62.62,0,0,0-.4.15c-.19.17-.21.42,0,.54a.36.36,0,0,0,.25.08.64.64,0,0,0,.4-.15.34.34,0,0,0,0-.54.44.44,0,0,0-.25-.08Z" transform="translate(3.96 2.44)"/><path class="cls-25" d="M16.09,160a16.3,16.3,0,0,1,.5-3.38,3.47,3.47,0,0,1,.64-1.31l.1-.1a3.12,3.12,0,0,0,.25,2.42,22.45,22.45,0,0,0-.33,3.24,3,3,0,0,1-1.16-.87Z" transform="translate(3.96 2.44)"/><path class="cls-12" d="M17.18,161A3.23,3.23,0,0,1,16,160.1l.12-.07h0l-.12.07,0,0v0a16.52,16.52,0,0,1,.51-3.41,3.47,3.47,0,0,1,.66-1.35c0-.05.09-.08.11-.11l.35-.33-.09.43a4.88,4.88,0,0,0-.13,1.06,2.1,2.1,0,0,0,.35,1.27l0,0v.05a23.63,23.63,0,0,0-.33,3.23v.19l-.2-.09Zm-.07-.31a22.08,22.08,0,0,1,.31-3,2.43,2.43,0,0,1-.37-1.36,4.55,4.55,0,0,1,0-.53,4.3,4.3,0,0,0-.36.89,16.42,16.42,0,0,0-.49,3.32,3.2,3.2,0,0,0,.87.7Z" transform="translate(3.96 2.44)"/><path class="cls-25" d="M17.25,166c0,.57,0,1.16.07,1.79a.53.53,0,0,1-.57.51h0a.57.57,0,0,1-.6-.47c-.05-1-.08-1.93-.1-2.79a3.14,3.14,0,0,0,1.23,1Z" transform="translate(3.96 2.44)"/><path class="cls-12" d="M16.72,168.42a.69.69,0,0,1-.74-.59c-.05-1-.08-1.93-.1-2.79v-.43l.28.37a2.89,2.89,0,0,0,1.17.91l-.07.11.07-.11.08,0V166c0,.57,0,1.15.07,1.78v0a.69.69,0,0,1-.72.61Zm-.45-.6a.42.42,0,0,0,.45.36h0a.42.42,0,0,0,.44-.37v0c0-.6-.05-1.17-.07-1.72a3.38,3.38,0,0,1-.93-.64c0,.74.05,1.53.09,2.39Z" transform="translate(3.96 2.44)"/><path class="cls-25" d="M17.33,155.24a1.35,1.35,0,0,1,.94-.39,1.58,1.58,0,0,1,1.2.59.44.44,0,0,1-.17.68.69.69,0,0,1-.83-.13l0,0-.13-.1,0,0a2.87,2.87,0,0,0-.64,1.48c0,.1,0,.22-.06.34a3.12,3.12,0,0,1-.25-2.42Z" transform="translate(3.96 2.44)"/><path class="cls-12" d="M17.45,157.72a2.41,2.41,0,0,1-.4-1.4,5.07,5.07,0,0,1,.14-1.1v0l0,0a1.57,1.57,0,0,1,1-.44h0a1.69,1.69,0,0,1,1.26.61h0l0,0a.49.49,0,0,1,.12.34.57.57,0,0,1-.32.51.9.9,0,0,1-.42.1.78.78,0,0,1-.62-.27h0l0,0a3.36,3.36,0,0,0-.52,1.33c0,.1-.05.22-.07.34l-.06.32-.21-.28Zm-.1-1.4a2.4,2.4,0,0,0,.16.93,2.84,2.84,0,0,1,.67-1.5l.09-.07.1.06,0,0a.84.84,0,0,1,.17.13l0,0a.48.48,0,0,0,.38.16.54.54,0,0,0,.25-.06.36.36,0,0,0,.2-.31.31.31,0,0,0-.07-.2l-.09-.1a1.92,1.92,0,0,0-.19-.17,1.54,1.54,0,0,0-.81-.28h0a1.21,1.21,0,0,0-.78.33,4.62,4.62,0,0,0-.12,1Z" transform="translate(3.96 2.44)"/><path class="cls-25" d="M17.2,163.08v.09c0,.85,0,1.79.05,2.83A3.14,3.14,0,0,1,16,165c0-.66,0-1.29,0-1.87,0-.37,0-.71,0-1a3.13,3.13,0,0,0,1.19,1Z" transform="translate(3.96 2.44)"/><path class="cls-12" d="M17.18,166.11a3.32,3.32,0,0,1-1.28-1l0,0v0c0-.66,0-1.29,0-1.87,0-.37,0-.71,0-1v-.42l.26.35a3.13,3.13,0,0,0,1.14.92l-.07.1.07-.1.08,0v.16c0,.84,0,1.79,0,2.83v.21l-.23-.1Zm-.08-.32c0-1-.05-1.83-.05-2.62v0a3.42,3.42,0,0,1-.9-.65c0,.22,0,.44,0,.67,0,.57,0,1.18,0,1.84a3,3,0,0,0,.93.78Z" transform="translate(3.96 2.44)"/><path class="cls-25" d="M17.25,160.9c0,.65-.05,1.37-.05,2.18a3.13,3.13,0,0,1-1.19-1c0-.78,0-1.48.08-2.1a3,3,0,0,0,1.16.87Z" transform="translate(3.96 2.44)"/><path class="cls-12" d="M17.13,163.19a3.37,3.37,0,0,1-1.25-1l0,0v0c0-.79,0-1.48.08-2.1l0-.36.24.29a3,3,0,0,0,1.11.84l-.07.1.07-.1.08,0v.08c0,.65,0,1.36,0,2.17v.21l-.22-.1Zm-.08-.33c0-.69,0-1.32.05-1.89a3.16,3.16,0,0,1-.88-.6c0,.52,0,1.09-.07,1.73a3,3,0,0,0,.9.76Z" transform="translate(3.96 2.44)"/><path class="cls-29" d="M17.09,155.79a4.3,4.3,0,0,0-.36.89,16.42,16.42,0,0,0-.49,3.32l.3.3a11.15,11.15,0,0,1,.55-3.48,3,3,0,0,1,0-.42h0a.06.06,0,0,1,0,0h0v0h0c0-.17,0-.35,0-.51Z" transform="translate(3.96 2.44)"/><path class="cls-30" d="M17.06,156.4a3,3,0,0,0,0,.42h0a3,3,0,0,1,0-.42Zm0,0h0Zm0,0h0Zm0,0h0Zm0,0Zm0-.06Zm.09-.85a3.74,3.74,0,0,0-.55,1.2,16.42,16.42,0,0,0-.49,3.18l.11.13,0,0a16.42,16.42,0,0,1,.49-3.32,4.3,4.3,0,0,1,.36-.89c0-.12,0-.23.05-.34Z" transform="translate(3.96 2.44)"/><path class="cls-29" d="M16.18,165.43c0,.74.05,1.53.09,2.39a.42.42,0,0,0,.42.36c0-.63-.06-1.46-.08-2.4a2.61,2.61,0,0,1-.43-.35Z" transform="translate(3.96 2.44)"/><path class="cls-30" d="M16,165.27c0,.79,0,1.64.09,2.56a.58.58,0,0,0,.57.47v-.12a.42.42,0,0,1-.42-.36c0-.86-.07-1.65-.09-2.39l-.15-.16Z" transform="translate(3.96 2.44)"/><path class="cls-29" d="M18.26,155h0a1.21,1.21,0,0,0-.78.33,5.35,5.35,0,0,0-.12,1,2,2,0,0,1,1.35-1.19,2.26,2.26,0,0,0-.44-.09Z" transform="translate(3.96 2.44)"/><path class="cls-30" d="M18.26,154.85a1.42,1.42,0,0,0-.93.39l-.1.1-.09.11c0,.11,0,.22-.05.34s0,.34,0,.51h0v0h0a.06.06,0,0,0,0,0h0a3,3,0,0,0,0,.42l.12-.3.14-.28a5.35,5.35,0,0,1,.12-1,1.21,1.21,0,0,1,.78-.33h0a2.26,2.26,0,0,1,.44.09.87.87,0,0,1,.2,0H19a1.74,1.74,0,0,0-.7-.18Z" transform="translate(3.96 2.44)"/><path class="cls-29" d="M16.15,162.5c0,.22,0,.44,0,.67,0,.57,0,1.18,0,1.84a4.38,4.38,0,0,0,.43.44c0-.81-.05-1.7-.06-2.61a3,3,0,0,1-.33-.28l-.06-.06Z" transform="translate(3.96 2.44)"/><path class="cls-30" d="M16.21,162.56a3,3,0,0,0,.33.28h0a3,3,0,0,1-.33-.28Zm-.21-.22v.83c0,.58,0,1.21,0,1.87v.23l.15.16a2.61,2.61,0,0,0,.43.35.91.91,0,0,1,0-.17v-.16a4.38,4.38,0,0,1-.43-.44c0-.66,0-1.27,0-1.84,0-.23,0-.45,0-.67l-.15-.16Z" transform="translate(3.96 2.44)"/><path class="cls-29" d="M16.22,160.37c0,.52,0,1.09-.07,1.73a3.63,3.63,0,0,0,.39.4c0-.5,0-1,0-1.53v-.34a2.66,2.66,0,0,1-.31-.26Z" transform="translate(3.96 2.44)"/><path class="cls-30" d="M16.1,159.83c0,.07,0,.13,0,.2,0,.62-.07,1.32-.08,2.1a1.48,1.48,0,0,1,0,.21l.15.16.06.06a3,3,0,0,0,.33.28v-.34a3.63,3.63,0,0,1-.39-.4c0-.64,0-1.21.07-1.73a2.66,2.66,0,0,0,.31.26s0-.11,0-.16v-.17l-.3-.3,0,0-.11-.13Z" transform="translate(3.96 2.44)"/><path class="cls-26" d="M17,158.28a.14.14,0,0,0-.15.11s-.07.88-.14,2l.29.19c.07-1.24.15-2.21.15-2.21h0c0-.07-.05-.13-.14-.13Z" transform="translate(3.96 2.44)"/><path class="cls-15" d="M16.69,160.43h0l.29.19h0l-.29-.19Z" transform="translate(3.96 2.44)"/><path class="cls-26" d="M16.59,162.87c0,.27,0,.53,0,.79,0,.55,0,1,.05,1.42a.14.14,0,0,0,.15.11h0a.12.12,0,0,0,.13-.13c0-.37-.05-.86-.05-1.4v-.6a2.9,2.9,0,0,1-.29-.19Z" transform="translate(3.96 2.44)"/><path class="cls-15" d="M16.59,162.87h0a2.9,2.9,0,0,0,.29.19h0a2.9,2.9,0,0,1-.29-.19Z" transform="translate(3.96 2.44)"/><path class="cls-26" d="M16.67,160.73c0,.58-.06,1.21-.08,1.82a2.28,2.28,0,0,0,.3.21c0-.61,0-1.26.07-1.86l-.29-.17Z" transform="translate(3.96 2.44)"/><path class="cls-15" d="M16.59,162.55v.32a2.9,2.9,0,0,0,.29.19c0-.1,0-.2,0-.3a2.28,2.28,0,0,1-.3-.21Zm.1-2.12c0,.1,0,.2,0,.3l.29.17c0-.09,0-.19,0-.28l-.29-.19Z" transform="translate(3.96 2.44)"/><path class="cls-11" d="M258.47-2.32s-14.42,164.45,73.9,158.52l-18.63,79s4.81,3.95,9.61,0c2.25-1.85,3.45-.13,4.86,1.6,1.6,1.95,3.47,3.91,7.46.62,3.53-2.9,5.27-1.92,6.62-1,1.52,1.1,2.55,2.19,5.1-2.26,2.17-3.8,4-3.25,5.37-2.69,1.65.66,2.6,1.33,2.6-5.7V-2.32Z" transform="translate(3.96 2.44)"/><path class="cls-12" d="M328.09,236.87c-1-1.21-1.87-2.35-2.93-2.33a2.7,2.7,0,0,0-1.7.76,7.37,7.37,0,0,1-4.74,1.79,8.86,8.86,0,0,1-5.08-1.79l-.06-.05,18.6-78.92c-1.5.1-3,.14-4.41.14-62.57-.05-70.3-89.24-70.32-133.89,0-14.94.88-24.91.88-24.91v-.11h97.18V225.83c0,4.95-.4,6.14-1.48,6.21-.83,0-1.77-.8-2.9-.79s-2.21.59-3.61,3-2.37,3.28-3.32,3.29c-1.48,0-2.42-2-4.41-1.95-1,0-2.27.46-4,1.9a6.43,6.43,0,0,1-3.91,1.8c-1.7,0-2.8-1.26-3.77-2.45Zm.24-.13c1,1.2,2,2.34,3.53,2.33a6.17,6.17,0,0,0,3.71-1.72c1.77-1.46,3.12-2,4.22-2,2.2,0,3.26,2,4.41,2,.69,0,1.65-.69,3.05-3.16S350,231,351.13,231s2.29.8,2.9.78c.32,0,.61-.19.84-1.08a22.91,22.91,0,0,0,.34-4.88V-2.2h-96.6c-.09,1.13-.87,10.75-.86,24.78,0,22.32,1.95,55.76,11.69,83.6s27.26,50.06,58.33,50c1.5,0,3,0,4.58-.15l.2,0L313.9,235.17a8.64,8.64,0,0,0,1.35.82,7.94,7.94,0,0,0,3.47.86,7,7,0,0,0,4.53-1.72,3.05,3.05,0,0,1,1.91-.84c1.33,0,2.19,1.26,3.17,2.45ZM258.47-2.2v0Z" transform="translate(3.96 2.44)"/><path class="cls-13" d="M264.88,29.76h0c3.71,41.12,17.13,125,64.81,125h.9s-55.43-18.58-65.68-124.95Z" transform="translate(3.96 2.44)"/><path class="cls-13" d="M276.3,67.48s23.93,86.22,64.23,86.58c0,0,0,0,0-.05-3.42-.59-35.41-8.12-64.18-86.53Z" transform="translate(3.96 2.44)"/><path class="cls-14" d="M330,200.52c-1.5,0,3.16-34.69,3.16-34.69,1.65,2-1.66,34.69-3.16,34.69Zm4.32-42.16a.69.69,0,0,0-.49.19,19.29,19.29,0,0,0-1.36,3.25L323.38,235l.2-.15a1.7,1.7,0,0,1,1.31-.66,1.94,1.94,0,0,1,.71.14c1.09.25,1.86,1.34,2.73,2.39l.19.23c.31-3.14,4.35-44.79,5.65-67.28a1.25,1.25,0,0,1-.11-.5,1.42,1.42,0,0,1,.08-.45l.09-.18c.24-4.34.37-7.87.33-10.16a1.35,1.35,0,0,0-.28,0Z" transform="translate(3.96 2.44)"/><path class="cls-15" d="M323.58,234.87l-.2.15,0,.19a2.55,2.55,0,0,1,.23-.34Zm2-.52a7.06,7.06,0,0,1,2.9,2.81s0-.06,0-.19l-.19-.23c-.87-1.05-1.64-2.14-2.73-2.39Z" transform="translate(3.96 2.44)"/><path class="cls-14" d="M340.18,191.88c-2.12,0,.15-32.47.15-32.47,1.26,1,2,32.47-.15,32.47Zm-.5-32.91c-2.21,14-1.73,76.74-1.73,76.74a2.75,2.75,0,0,1,1.75-.73,2.48,2.48,0,0,1,1.75.82l.09,0c0-1.93,1.72-57.8.24-74.79a.17.17,0,0,1-.1,0c-.72,0,.35-2.1-2-2.11Z" transform="translate(3.96 2.44)"/><path class="cls-15" d="M341.45,235.8l.09.09v0l-.09,0Z" transform="translate(3.96 2.44)"/><path class="cls-14" d="M347.84,184.47c-1.92,0-2.26-24.44-2.26-24.44.09-.4.18-.59.29-.59,1.23,0,3.73,25,2,25Zm-2-25.82-.37,0c-.74.07-1,1.54-1.18,2.48l4.87,70.64a3.18,3.18,0,0,1,1.66-.75,1.92,1.92,0,0,1,.55-.08,1.65,1.65,0,0,1,.82.21l.27.09c-.14-3.06-2.64-57.25-5-70.09l-.15-.34c-.67-1.66-.56-2.18-1.51-2.18Z" transform="translate(3.96 2.44)"/><path class="cls-15" d="M352.15,231.17a1.14,1.14,0,0,1,.27.22v-.13l-.27-.09Zm-1.37-.13a3.18,3.18,0,0,0-1.66.75V232a4.37,4.37,0,0,1,1.65-.92Z" transform="translate(3.96 2.44)"/><path class="cls-13" d="M336.89,170.53a1.85,1.85,0,0,1-.49.09,1.77,1.77,0,0,1-.52.07,2.59,2.59,0,0,1-.55-.07l-.23-.08c-2,20.63-4.85,65-5,67.94a3.24,3.24,0,0,0,1.41.57c.13-3,2-43.84,3-43.84s-2,41.29-2.18,43.83a5.22,5.22,0,0,0,2-.8c.14-3,2.24-47.16,2.56-67.71Z" transform="translate(3.96 2.44)"/><path class="cls-16" d="M334.33,238.24a5.22,5.22,0,0,1-2,.8v.13l-.81.05s0-.06,0-.17a3.24,3.24,0,0,1-1.41-.57c0,.1,0,.15,0,.15a2.27,2.27,0,0,0,1.61.59,5.86,5.86,0,0,0,2.66-.83v-.15Z" transform="translate(3.96 2.44)"/><path class="cls-14" d="M279.59,29.68c4.14,30.57,19.74,113.18,68,117.47,0,0-50.85-11.37-67.66-117.26l-.34-.21Z" transform="translate(3.96 2.44)"/><path class="cls-13" d="M351.89,128.05s2.65,10-7.74,10c-3.17,0-7.55-.93-13.59-3.36,0,0,11.24,8.05,18,8.05,4.43,0,7-3.42,3.3-14.72Z" transform="translate(3.96 2.44)"/><path class="cls-13" d="M327.86,145.09c5.77,3.94,10.21,6.16,13.62,7.26a14.79,14.79,0,0,1,2.35.49c.58.14,1.2.28,1.85.38.27,0,.52,0,.77,0,5.9,0,6.34-4.94,6.34-4.94a9.62,9.62,0,0,1-7.62,3.16c-7.94,0-17.28-6.35-17.31-6.37Zm0,0Z" transform="translate(3.96 2.44)"/><path class="cls-13" d="M343.15,177.9c-.79,11.32-.33,55.76-.3,58.82a3.54,3.54,0,0,0,.85.51l.21,0a1.82,1.82,0,0,0,.52-.08,3.55,3.55,0,0,1-.71.07s-.63-31.37-.09-41.36l-.48-18Zm.43-2.61c-.07,0-.13.16-.2.46l.48,17.67c.06-.36.14-.55.22-.55,1.25,0,1.25,43.84,1.25,43.84h0c.17-.13.34-.27.5-.42a14.43,14.43,0,0,0,1.42-2.12,2.39,2.39,0,0,1,.13-.21c-.18-4.24-2.45-58.67-3.8-58.67Z" transform="translate(3.96 2.44)"/><path class="cls-16" d="M342.85,236.72v.16a1.72,1.72,0,0,0,.85.35,3.54,3.54,0,0,1-.85-.51Zm4.53-2.76a2.39,2.39,0,0,0-.13.21,14.43,14.43,0,0,1-1.42,2.12,9.53,9.53,0,0,0,1.56-2.07s0-.09,0-.26Z" transform="translate(3.96 2.44)"/><path class="cls-13" d="M302.33,95.79s17.11,36.05,38.71,36.05A20.3,20.3,0,0,0,350,129.7a13.63,13.63,0,0,1-2,.12c-6.27,0-26.09-2.71-45.64-34Z" transform="translate(3.96 2.44)"/><path class="cls-13" d="M351.59,109.53s-1,13.71-15.47,13.71a28,28,0,0,1-4.36-.37s6.23,3.7,11.78,3.7c5.37,0,10.12-3.45,8-17Z" transform="translate(3.96 2.44)"/><path class="cls-14" d="M311.74,104.54c7.05,13,14.86,16.51,21.21,16.51a21.24,21.24,0,0,0,12.63-4.6,33.69,33.69,0,0,1-10.65,1.84c-15.05,0-22.26-12.08-23.19-13.75Zm-.1-.19.1.19-.1-.19Z" transform="translate(3.96 2.44)"/><path class="cls-12" d="M292.92,65.16a255.78,255.78,0,0,1-9.56-47.39h0l.29,0s.53,5.89,2,14.75a244.76,244.76,0,0,0,7.58,32.6c7.45,23.82,20.29,47.88,41.57,49l0,.25C313.19,113.16,300.4,89,292.92,65.16Z" transform="translate(3.96 2.44)"/><path class="cls-13" d="M287,40.15c.36,1.84.75,3.75,1.17,5.71,13.4,57.8,33.55,65.88,43.77,65.88a15.78,15.78,0,0,0,6.44-1.22c-.52,0-1,0-1.53,0-30.18,0-46.5-57.25-49.85-70.42Z" transform="translate(3.96 2.44)"/><path class="cls-16" d="M286.35,37.48c.59,2.91,1.2,5.69,1.82,8.38-.42-2-.81-3.87-1.17-5.71s-.65-2.67-.65-2.67Zm0,0Z" transform="translate(3.96 2.44)"/><path class="cls-12" d="M332.79,105.83c15.75-2.08,18.65-21.82,18.64-35.72a100.18,100.18,0,0,0-.89-13.65l.3,0a103.5,103.5,0,0,1,.88,13.68c0,13.9-2.81,33.77-18.88,36l0-.24Z" transform="translate(3.96 2.44)"/><path class="cls-13" d="M351.37,66.71c-.13,9.16-2,30.7-16.6,34.18-6.8,1.62-5.87,4.23-2.15,4.23,4.5,0,13.06-3.8,17-17.73a73.71,73.71,0,0,0,1.84-17.28c0-1.18,0-2.32-.06-3.4Z" transform="translate(3.96 2.44)"/><path class="cls-16" d="M351.31,62.6s.1,1.59.06,4.11c0,1.08.06,2.22.06,3.4a73.71,73.71,0,0,1-1.84,17.28c1.72-6.13,2.54-14.21,1.72-24.79Z" transform="translate(3.96 2.44)"/><path class="cls-12" d="M264.66,29.27H265s.29,6.37,1.44,16.25A309.93,309.93,0,0,0,273,82.8c6.87,28.06,19.48,58.68,42.26,69l-.14.21C269.26,131.23,264.68,29.28,264.66,29.27Z" transform="translate(3.96 2.44)"/><path class="cls-12" d="M278.62,75.45l.29,0s1.12,4.34,3.43,11a193.92,193.92,0,0,0,10.57,24.86c9.5,18.48,24,38,44,42.43l-.07.23C296.63,145,278.72,75.74,278.62,75.45Zm0,0Z" transform="translate(3.96 2.44)"/><path class="cls-12" d="M344.35,126.42c6.45-.38,7.83-5.9,7.83-10.57a28.74,28.74,0,0,0-.73-6.29l.28,0a28.54,28.54,0,0,1,.75,6.34c0,4.68-1.4,10.4-8.11,10.81Z" transform="translate(3.96 2.44)"/><path class="cls-13" d="M351,158.67c-2.19,0,3.25,50.08,4.22,58.92V185c-.5-6.43-2.2-26.34-4.22-26.34Z" transform="translate(3.96 2.44)"/><path class="cls-16" d="M355.21,185v32.58c.1.86.15,1.33.15,1.33V187s-.05-.74-.15-2Z" transform="translate(3.96 2.44)"/><path class="cls-17" d="M334.47,195.21c-1,0-2.86,40.89-3,43.84l.37,0h0a3.11,3.11,0,0,0,.43,0c.19-2.54,3.2-43.83,2.18-43.83Z" transform="translate(3.96 2.44)"/><path class="cls-18" d="M332.29,239a3.11,3.11,0,0,1-.43,0h0l-.37,0c0,.11,0,.17,0,.17l.81-.05V239Z" transform="translate(3.96 2.44)"/><path class="cls-13" d="M345.33,236.71a2.85,2.85,0,0,1-.9.46,1.35,1.35,0,0,0,.9-.46Z" transform="translate(3.96 2.44)"/><path class="cls-17" d="M344.08,192.87c-.08,0-.16.19-.22.55l.87,32.24h-.3l-.8-29.79c-.54,10,.09,41.36.09,41.36a3.55,3.55,0,0,0,.71-.07,2.85,2.85,0,0,0,.9-.46h0s0-43.84-1.25-43.84Z" transform="translate(3.96 2.44)"/><path class="cls-19" d="M345.87,159.44c-.11,0-.2.19-.29.59,0,0,.34,24.44,2.26,24.44,1.76,0-.74-25-2-25Z" transform="translate(3.96 2.44)"/><path class="cls-19" d="M340.33,159.41s-2.27,32.47-.15,32.47,1.41-31.43.15-32.47Z" transform="translate(3.96 2.44)"/><path class="cls-19" d="M333.12,165.83s-4.66,34.69-3.16,34.69,4.81-32.72,3.16-34.69Z" transform="translate(3.96 2.44)"/><path class="cls-20" d="M332.37,231.76l3.4-57.78Z" transform="translate(3.96 2.44)"/><polygon class="cls-12" points="336.18 234.19 339.58 176.41 339.88 176.42 336.47 234.2 336.18 234.19"/><polygon class="cls-20" points="348.54 228.1 346.74 161.11 348.54 228.1 348.54 228.1"/><polygon class="cls-12" points="346.59 161.11 346.89 161.11 348.69 228.1 348.4 228.11 346.59 161.11 346.59 161.11"/><path class="cls-12" d="M340.85,153.3l.25-.13a2.12,2.12,0,0,0,.71.51,5.79,5.79,0,0,0,2.62.52,15.51,15.51,0,0,0,5-1l.12.22a15.87,15.87,0,0,1-5.12,1c-2.64,0-3.56-1.11-3.58-1.14Z" transform="translate(3.96 2.44)"/><path class="cls-12" d="M347.45,158.15a4.51,4.51,0,0,1,.3-1.74h0l.27.08a4.77,4.77,0,0,0-.28,1.66,6.17,6.17,0,0,0,1.27,3.67l-.25.12a6.38,6.38,0,0,1-1.31-3.79Z" transform="translate(3.96 2.44)"/><path class="cls-21" d="M332.66,160l-.26.77h0l-.77,2.29h0l-1,2.91h0l-.88,2.61h0l-.54,1.6-.53,2.38s2.21-6.62,3.74-10.76l.23-1.8Zm3.71-1.87c.06.45.12,1,.16,1.54h0l0,.17a1.28,1.28,0,0,0,0,.19h0v.12h0c.3,0,.39,3,.35,7.81a1.43,1.43,0,0,1,.78,1.23,1.19,1.19,0,0,1-.08.45l-.14,0,.14,0a1.58,1.58,0,0,1-.73.8v.09c1.39-.48,1.57-2.39.81-2.73-1-.43-.68-.18-.75-3.39s-.38-5.25,2.4-5.43h.33c.05-.27.09-.53.13-.76h-1.07c-.74,0-1.45,0-2.11-.07h-.26Zm-1.82-.19c0,.14,0,.3,0,.46a1.92,1.92,0,0,1,.36.14q0-.3-.09-.57l-.28,0Zm9.67-.27h0c-.44.1-.87.18-1.31.25h-.1c-.45.07-.9.12-1.34.16.13.78.25,1.77.35,3,.56-.25-.19-2.76.88-2.81h.1c1,0,1,.94,1.25,3.09,0,.42.07.59.1.59a3.26,3.26,0,0,0,.14-.76l-.17-2.48a5.76,5.76,0,0,1,.14-1Zm.21-3.23c-2.64,0-3.56-1.11-3.58-1.14l.25-.13h0a2.28,2.28,0,0,0,.71.51,5.79,5.79,0,0,0,2.62.52,15.51,15.51,0,0,0,5-1l.12.22a15.87,15.87,0,0,1-5.12,1Zm8.17-4a11,11,0,0,0-1.08,1,5.75,5.75,0,0,1-4.39,1.82,9.9,9.9,0,0,1-1.45-.11,18.29,18.29,0,0,1-4.2-.87h-.14a1,1,0,0,0-.71.22c-.6.55-.61,1-.15,1.45l.3.05h-.25a6.77,6.77,0,0,0,3.1,1c2.85.43-3,.86-5.78.93h-.16c-2.6,0-2.12-1.49-3.6-1.73l-.27,0c-1.05,0-1.42,1.12-1.51,1.49h0c.09,0,.22.05.47.11a.5.5,0,0,1,0-.16.55.55,0,0,1,.13-.34l0,0h0l.05-.06a2.75,2.75,0,0,1,.23-.21,1.89,1.89,0,0,1,1-.34h0a1.43,1.43,0,0,1,.71.2l0-.09.34.33h0l0,0s.06,0,.09.09a3.1,3.1,0,0,1,.58,1.09c.61.06,1.28.11,2,.13h.82c.51,0,1,0,1.57,0,.1-.17.2-.26.31-.26a.37.37,0,0,1,.29.21c.3,0,.62-.06.93-.1l.25,0h0l.27,0a19.77,19.77,0,0,0,3.47-.86h0l.06,0a15.49,15.49,0,0,0,2.28-1h0l.05,0,.11-.06a13.31,13.31,0,0,0,2.65-2l.05,0a15.34,15.34,0,0,0,1.53-1.74Zm2.48-.12a15.85,15.85,0,0,1-.92,1.3h0a15.49,15.49,0,0,1-3.1,3h0a17.49,17.49,0,0,1-3.09,1.78l.06,0a4.77,4.77,0,0,0-.28,1.66,6.17,6.17,0,0,0,1.27,3.67l-.25.12a6.38,6.38,0,0,1-1.31-3.79,5,5,0,0,1,.23-1.56l-.28.11h0l0,0c-.52.21-1,.39-1.57.55a8,8,0,0,1,1,1.4,9.15,9.15,0,0,1,.68,2.5c.42.85,1,1.61,1.49,1.61s.71-.76.39-2.94c-.68-4.63,3.08-5.24,4.8-7.16a3.36,3.36,0,0,0,.94-2.32Z" transform="translate(3.96 2.44)"/><path class="cls-22" d="M340.48,154s0,0,0,.05h.25l-.3-.05Z" transform="translate(3.96 2.44)"/><path class="cls-23" d="M333.41,157.76l-.2.59h0l-.55,1.65-.23,1.8a19.29,19.29,0,0,1,1.36-3.25.69.69,0,0,1,.49-.19,1.35,1.35,0,0,1,.28,0c0-.16,0-.32,0-.46l-1.14-.18Zm.78-1.75,0,0h0l0,.05.18,0-.09-.13Z" transform="translate(3.96 2.44)"/><path class="cls-23" d="M341.43,158.1l-1.27.09h0l-.35,0c0,.23-.08.49-.13.76,2.35,0,1.28,2.11,2,2.11a.17.17,0,0,0,.1,0c-.1-1.18-.22-2.17-.35-3Zm-.78-1.9c-.11,0-.21.09-.31.26l.6-.05a.37.37,0,0,0-.29-.21Z" transform="translate(3.96 2.44)"/><path class="cls-23" d="M345.79,157.27c-.52.15-1,.29-1.57.4a5.76,5.76,0,0,0-.14,1l.17,2.48c.15-.94.44-2.41,1.18-2.48l.37,0c.95,0,.84.52,1.51,2.18l.15.34a9.15,9.15,0,0,0-.68-2.5,8,8,0,0,0-1-1.4Z" transform="translate(3.96 2.44)"/><path class="cls-22" d="M336.89,170.44a1.9,1.9,0,0,1-.49.18,1.85,1.85,0,0,0,.49-.09v-.09Zm-.32-10.29h0c0,.48.06,1,.07,1.57h0v.45h0c0,.32,0,.66,0,1,0,.58,0,1.21,0,1.87h0v0h0c0,.83-.05,1.73-.1,2.71a1.61,1.61,0,0,1,.4.17c0-4.82-.05-7.81-.35-7.81Z" transform="translate(3.96 2.44)"/><path class="cls-22" d="M341.48,152.35a18.29,18.29,0,0,0,4.2.87c-.65-.1-1.27-.24-1.85-.38a14.79,14.79,0,0,0-2.35-.49Z" transform="translate(3.96 2.44)"/><path class="cls-24" d="M341.1,153.17h0l-.25.13s.94,1.14,3.58,1.14h0a15.87,15.87,0,0,0,5.12-1l-.12-.22a15.51,15.51,0,0,1-5,1,5.79,5.79,0,0,1-2.62-.52,2.28,2.28,0,0,1-.71-.51Z" transform="translate(3.96 2.44)"/><path class="cls-24" d="M348,156.47l-.28.12a5,5,0,0,0-.23,1.56,6.38,6.38,0,0,0,1.31,3.79l.25-.12a6.17,6.17,0,0,1-1.27-3.67,4.77,4.77,0,0,1,.28-1.66l-.06,0Z" transform="translate(3.96 2.44)"/><path class="cls-25" d="M328.66,175.05a1.87,1.87,0,0,1-2.27.56,1.26,1.26,0,0,1-.68-1.86,1.88,1.88,0,0,1,2.27-.56,1.25,1.25,0,0,1,.68,1.86Z" transform="translate(3.96 2.44)"/><path class="cls-12" d="M326.32,175.72a1.46,1.46,0,0,1-.95-1.32,1.2,1.2,0,0,1,.21-.71,1.93,1.93,0,0,1,1.61-.79,2.18,2.18,0,0,1,.86.18,1.49,1.49,0,0,1,1,1.32,1.29,1.29,0,0,1-.22.71l-.13-.06.13.06a1.93,1.93,0,0,1-1.61.79,2.18,2.18,0,0,1-.86-.18Zm-.48-1.91a1.1,1.1,0,0,0-.18.59,1.25,1.25,0,0,0,.8,1.11,1.82,1.82,0,0,0,.72.15,1.58,1.58,0,0,0,1.35-.67h0a1.09,1.09,0,0,0,.19-.6,1.26,1.26,0,0,0-.81-1.11,1.82,1.82,0,0,0-.72-.15,1.59,1.59,0,0,0-1.35.67Z" transform="translate(3.96 2.44)"/><path class="cls-26" d="M328,174.49a.56.56,0,0,1-.43-.21.34.34,0,0,1,.07-.54.41.41,0,0,1,.19,0,.53.53,0,0,1,.43.21.35.35,0,0,1-.07.54.41.41,0,0,1-.19,0Zm-.84.91a1.29,1.29,0,0,1-.55-.11.88.88,0,0,1-.48-1.31,1.09,1.09,0,0,1,.52-.42l-.07.09a.89.89,0,0,0,.48,1.31,1.29,1.29,0,0,0,.55.11,1.3,1.3,0,0,0,.52-.1h0a1.23,1.23,0,0,1-1,.43Zm-.32-2.09a1.34,1.34,0,0,0-.86.56,1,1,0,0,0,.56,1.53,1.61,1.61,0,0,0,.65.13,1.44,1.44,0,0,0,1.21-.59,1,1,0,0,0-.43-1.47.85.85,0,0,1-.47.15.64.64,0,0,1-.2,0,.77.77,0,0,1-.46-.28Z" transform="translate(3.96 2.44)"/><path class="cls-27" d="M326.65,173.56a1.09,1.09,0,0,0-.52.42.88.88,0,0,0,.48,1.31,1.29,1.29,0,0,0,.55.11,1.23,1.23,0,0,0,1-.43,1.3,1.3,0,0,1-.52.1,1.29,1.29,0,0,1-.55-.11.89.89,0,0,1-.48-1.31l.07-.09Z" transform="translate(3.96 2.44)"/><path class="cls-28" d="M327.83,173.7a.41.41,0,0,0-.19,0,.34.34,0,0,0-.07.54.56.56,0,0,0,.43.21.41.41,0,0,0,.19,0,.35.35,0,0,0,.07-.54.53.53,0,0,0-.43-.21Z" transform="translate(3.96 2.44)"/><path class="cls-25" d="M328.06,169.48l-1.14,3.39a.49.49,0,0,0,.41.61l.17,0a.59.59,0,0,0,.57-.37l1.55-4.59a2.67,2.67,0,0,1-1.56.94Z" transform="translate(3.96 2.44)"/><path class="cls-12" d="M327.3,173.59a.63.63,0,0,1-.55-.59.88.88,0,0,1,0-.16l1.15-3.39,0-.08h.1a2.5,2.5,0,0,0,1.46-.89l.26.11-1.55,4.59a.74.74,0,0,1-.71.45.64.64,0,0,1-.2,0Zm-.24-.69,0,.1a.4.4,0,0,0,.33.36l.13,0a.44.44,0,0,0,.43-.28L329.3,169a2.51,2.51,0,0,1-1.12.55l-1.12,3.32Z" transform="translate(3.96 2.44)"/><path class="cls-25" d="M328.9,167l-.84,2.48a2.67,2.67,0,0,0,1.56-.94l.89-2.62A2.88,2.88,0,0,1,328.9,167Z" transform="translate(3.96 2.44)"/><path class="cls-12" d="M328.75,167l0-.07h.08a2.76,2.76,0,0,0,1.52-1l.27.1-.89,2.65,0,0a2.93,2.93,0,0,1-1.65,1l-.23,0,.89-2.67Zm-.48,2.35a2.87,2.87,0,0,0,1.22-.82l.68-2a2.68,2.68,0,0,1-1.16.64l-.74,2.21Z" transform="translate(3.96 2.44)"/><path class="cls-25" d="M333.07,158.32l.53-1.58a.49.49,0,0,0-.41-.61.62.62,0,0,0-.74.34l-.89,2.62a2.45,2.45,0,0,0,1.51-.77Z" transform="translate(3.96 2.44)"/><path class="cls-12" d="M332.3,156.44A.75.75,0,0,1,333,156l.2,0a.65.65,0,0,1,.55.59.51.51,0,0,1,0,.17l-.53,1.58v0l0,0a2.63,2.63,0,0,1-1.6.82l-.22,0,.94-2.79Zm.29.06-.83,2.44a2.5,2.5,0,0,0,1.18-.68l.52-1.56,0-.1a.41.41,0,0,0-.34-.36H333a.45.45,0,0,0-.43.27Z" transform="translate(3.96 2.44)"/><path class="cls-25" d="M330,163.87,328.9,167a2.88,2.88,0,0,0,1.61-1.08l1-2.9a2.57,2.57,0,0,1-1.53.85Z" transform="translate(3.96 2.44)"/><path class="cls-12" d="M329.81,163.83l0-.07h.09a2.47,2.47,0,0,0,1.44-.8l.25.11-1,2.91h0a3,3,0,0,1-1.7,1.13l-.24,0,1.12-3.33Zm-.7,3a2.88,2.88,0,0,0,1.26-.94l.81-2.4a2.46,2.46,0,0,1-1.11.5l-1,2.84Z" transform="translate(3.96 2.44)"/><path class="cls-25" d="M331.56,159.09l-.71,2.12a2.15,2.15,0,0,0,1.41-.51l.81-2.38a2.45,2.45,0,0,1-1.51.77Z" transform="translate(3.96 2.44)"/><path class="cls-12" d="M330.84,161.33h-.18l.76-2.26,0-.08h.1a2.31,2.31,0,0,0,1.41-.73l.25.11-.81,2.42,0,0a2.38,2.38,0,0,1-1.45.54Zm.2-.25a2,2,0,0,0,1.09-.44l.64-1.9a2.38,2.38,0,0,1-1.09.46l-.64,1.88Z" transform="translate(3.96 2.44)"/><path class="cls-25" d="M330.85,161.21l-.9,2.66a2.57,2.57,0,0,0,1.53-.85l.78-2.32a2.15,2.15,0,0,1-1.41.51Z" transform="translate(3.96 2.44)"/><path class="cls-12" d="M330.71,161.18l0-.1h.18a2,2,0,0,0,1.24-.47l.39-.31-.94,2.77v0A2.72,2.72,0,0,1,330,164l-.22,0,1-2.83Zm-.55,2.53a2.73,2.73,0,0,0,1.19-.74L332,161a2.33,2.33,0,0,1-1,.29l-.8,2.38Zm.68-2.38v0Z" transform="translate(3.96 2.44)"/><path class="cls-29" d="M332.64,157.61c-.05.3-.12.65-.22,1.06a2.84,2.84,0,0,0,.47-.37l.05,0,.18-.55-.33-.07h0l-.16,0Z" transform="translate(3.96 2.44)"/><path class="cls-30" d="M333.12,157.71l-.18.55-.05,0,.07-.06.12,0,.19-.56-.15,0Z" transform="translate(3.96 2.44)"/><path class="cls-29" d="M329.3,169l-.19.15c-.71,2-1.37,3.4-2,3.6l0,.12,0,.1a.4.4,0,0,0,.33.36l.13,0a.44.44,0,0,0,.43-.28L329.3,169Z" transform="translate(3.96 2.44)"/><path class="cls-30" d="M329.52,168.84l-.22.19-1.37,4.07a.44.44,0,0,1-.43.28l-.13,0A.4.4,0,0,1,327,173l0-.1,0-.12-.15,0h0l0,.07a.49.49,0,0,0,.41.61l.17,0a.59.59,0,0,0,.57-.37l1.45-4.29Z" transform="translate(3.96 2.44)"/><path class="cls-29" d="M330.17,166.46a1.24,1.24,0,0,1-.22.18c-.23.73-.46,1.42-.68,2.07.08-.07.15-.15.22-.22l.68-2Z" transform="translate(3.96 2.44)"/><path class="cls-30" d="M330.4,166.25a3.51,3.51,0,0,1-.45.39h0a1.24,1.24,0,0,0,.22-.18l-.68,2c-.07.07-.14.15-.22.22l-.09.25-.07.22.19-.15.22-.19.1-.3.78-2.29Z" transform="translate(3.96 2.44)"/><path class="cls-29" d="M331.18,163.47l0,0h0l-.26.18c-.28.84-.54,1.68-.8,2.49l.27-.29.81-2.4Z" transform="translate(3.96 2.44)"/><path class="cls-30" d="M331.16,163.49Zm.23-.19a2.11,2.11,0,0,1-.23.19l0,0-.81,2.4-.27.29a2.58,2.58,0,0,1-.08.26l-.07.22a3.51,3.51,0,0,0,.45-.39l.11-.33.88-2.62Z" transform="translate(3.96 2.44)"/><path class="cls-29" d="M332.77,158.74a2.34,2.34,0,0,1-.43.26c-.13.53-.31,1.14-.53,1.85l.23-.14.09-.07.64-1.9Z" transform="translate(3.96 2.44)"/><path class="cls-30" d="M332,160.71l-.23.14h0l.23-.14Zm.92-2.47-.07.06a2.84,2.84,0,0,1-.47.37c0,.05,0,.11,0,.17s0,.11,0,.16a2.34,2.34,0,0,0,.43-.26l-.64,1.9,0,0,.18-.15.73-2.15v0l-.12,0Z" transform="translate(3.96 2.44)"/><path class="cls-29" d="M332,161l-.29.13c-.07.23-.15.47-.23.72-.16.45-.31.91-.45,1.37l.32-.29L332,161Z" transform="translate(3.96 2.44)"/><path class="cls-30" d="M332.34,160.47l-.18.15,0,0-.09.07-.23.14a1.42,1.42,0,0,1-.05.16,1,1,0,0,1-.05.16L332,161l-.65,1.93-.32.29a1.72,1.72,0,0,0-.07.21l-.06.2.26-.18h0a2.11,2.11,0,0,0,.23-.19l.09-.28.78-2.32.08-.23Z" transform="translate(3.96 2.44)"/><path class="cls-26" d="M328.62,169.45a2.23,2.23,0,0,1-.44.13h0l.1,0h.07a.27.27,0,0,0,.26-.16v0Z" transform="translate(3.96 2.44)"/><path class="cls-15" d="M328.62,169.45a2.23,2.23,0,0,1-.44.13h0a2.23,2.23,0,0,0,.44-.13Z" transform="translate(3.96 2.44)"/><path class="cls-26" d="M329.47,166.94a3.54,3.54,0,0,1-.39.14l-.07,0-.74,2.21a2.07,2.07,0,0,0,.46-.2l.74-2.17Z" transform="translate(3.96 2.44)"/><path class="cls-15" d="M329.08,167.08l-.15,0-.08,0-.76,2.23a.2.2,0,0,0,.09.22,2.23,2.23,0,0,0,.44-.13l.11-.34a2.07,2.07,0,0,1-.46.2l.74-2.21.07,0Z" transform="translate(3.96 2.44)"/><path class="cls-26" d="M330.52,163.85a1.66,1.66,0,0,1-.45.12l-1,2.84a1.77,1.77,0,0,0,.48-.23l.93-2.73Z" transform="translate(3.96 2.44)"/><path class="cls-15" d="M330.07,164h-.15l-1.07,3.14.08,0,.15,0a3.54,3.54,0,0,0,.39-.14l.12-.36a1.77,1.77,0,0,1-.48.23l1-2.84Z" transform="translate(3.96 2.44)"/><path class="cls-26" d="M331.16,160.91h-.06l-.06.16a2,2,0,0,0,.35-.06.27.27,0,0,0-.15-.1Z" transform="translate(3.96 2.44)"/><path class="cls-15" d="M331.1,160.92a.23.23,0,0,0-.19.15v0h0a1.84,1.84,0,0,0,.47-.07h0a2,2,0,0,1-.35.06l.06-.16Z" transform="translate(3.96 2.44)"/><path class="cls-26" d="M331.39,161.27a1.54,1.54,0,0,1-.43.06l-.8,2.38a2.11,2.11,0,0,0,.47-.19l.76-2.25Z" transform="translate(3.96 2.44)"/><path class="cls-15" d="M331.39,161a1.84,1.84,0,0,1-.47.07h0l-1,2.9h.15a1.66,1.66,0,0,0,.45-.12l.11-.33a2.11,2.11,0,0,1-.47.19l.8-2.38a1.54,1.54,0,0,0,.43-.06l0-.08a.17.17,0,0,0,0-.17Z" transform="translate(3.96 2.44)"/><path class="cls-25" d="M346,155.48a19.94,19.94,0,0,1-3.56.89l-.53.06a3.63,3.63,0,0,1-1.73,1.64,24.08,24.08,0,0,0,2.59-.25h.1l1.29-.24a3.41,3.41,0,0,0,1.84-2.09Z" transform="translate(3.96 2.44)"/><path class="cls-12" d="M340.08,158a3.55,3.55,0,0,0,1.68-1.58l0-.07h.08l.52-.06a20.25,20.25,0,0,0,3.53-.88l.27-.1-.06.23a3.54,3.54,0,0,1-1.91,2.17h0c-.44.1-.87.18-1.31.25h-.1a24,24,0,0,1-2.61.25l-.08-.22Zm.6-.05c.67,0,1.35-.11,2-.22h.1c.42-.06.84-.15,1.26-.24a3.29,3.29,0,0,0,1.68-1.77,19.68,19.68,0,0,1-3.31.8l-.45.06a3.68,3.68,0,0,1-1.32,1.38Z" transform="translate(3.96 2.44)"/><path class="cls-25" d="M341.89,156.43a24.42,24.42,0,0,1-3.94.18,3.52,3.52,0,0,1-1.36,1.42,29.85,29.85,0,0,0,3.57,0,3.63,3.63,0,0,0,1.73-1.64Z" transform="translate(3.96 2.44)"/><path class="cls-12" d="M336.58,158.15l-.38,0,.31-.19a3.35,3.35,0,0,0,1.3-1.36l0-.08h.92a24,24,0,0,0,3.1-.19l.25,0-.09.2a3.72,3.72,0,0,1-1.8,1.69l0,0h0l-1.42,0c-.76,0-1.49,0-2.16-.07Zm2.16-.17,1.37,0a3.58,3.58,0,0,0,1.54-1.37,23.93,23.93,0,0,1-2.88.16H338a3.42,3.42,0,0,1-1.07,1.2c.56,0,1.16,0,1.77,0Z" transform="translate(3.96 2.44)"/><path class="cls-25" d="M334.56,156.31c-.59-.09-1.09-.18-1.47-.26l-.81-.18a1,1,0,0,0-1.14.47.72.72,0,0,0,.58.93h0s.55.15,1.44.32a3.69,3.69,0,0,0,1.4-1.28Z" transform="translate(3.96 2.44)"/><path class="cls-12" d="M333.12,157.71c-.59-.12-1-.22-1.26-.28h0l-.19-.05a.9.9,0,0,1-.72-.82.86.86,0,0,1,.05-.27,1.07,1.07,0,0,1,1-.59,1.15,1.15,0,0,1,.31,0h0l.78.17c.38.08.88.17,1.47.26l0,.12,0-.12.19,0-.08.15a4,4,0,0,1-1.46,1.32l-.05,0Zm-1.37-.56s.53.14,1.38.31a3.81,3.81,0,0,0,1.21-1.06c-.51-.08-.95-.16-1.29-.23l-.81-.19h0l-.23,0a.75.75,0,0,0-.72.43.41.41,0,0,0,0,.19.65.65,0,0,0,.51.58Z" transform="translate(3.96 2.44)"/><path class="cls-25" d="M338,156.61c-1,0-1.85-.1-2.62-.2l-.77-.1a3.69,3.69,0,0,1-1.4,1.28,30.39,30.39,0,0,0,3.43.44,3.52,3.52,0,0,0,1.36-1.42Z" transform="translate(3.96 2.44)"/><path class="cls-12" d="M336.58,158.15a31.06,31.06,0,0,1-3.46-.44l-.33-.07.29-.15a3.57,3.57,0,0,0,1.35-1.23l.05-.08h.11l.77.1c.76.1,1.64.17,2.59.2v0h.21l-.08.16a3.59,3.59,0,0,1-1.4,1.46l-.05,0Zm0-.25a3.3,3.3,0,0,0,1.18-1.18c-.88,0-1.7-.1-2.42-.18l-.66-.09a4,4,0,0,1-1.14,1.08c.8.14,1.84.28,3,.37Z" transform="translate(3.96 2.44)"/><path class="cls-25" d="M353.44,149.48a14.71,14.71,0,0,1-2.26,2.82,2.74,2.74,0,0,1-.23,2.3,15.61,15.61,0,0,0,3.09-3,2.82,2.82,0,0,0-.6-2.12Z" transform="translate(3.96 2.44)"/><path class="cls-12" d="M350.82,154.55a2.83,2.83,0,0,0,.36-1.36,2.71,2.71,0,0,0-.14-.86l0-.06.05-.05a14.41,14.41,0,0,0,2.24-2.79l.11-.19.14.18a2.9,2.9,0,0,1,.65,1.82,2.4,2.4,0,0,1,0,.37v0l0,0a15.32,15.32,0,0,1-3.11,3l-.23-.14Zm.66-1.36a2.8,2.8,0,0,1-.18,1,16.05,16.05,0,0,0,2.6-2.61c0-.11,0-.22,0-.32a2.7,2.7,0,0,0-.46-1.51,14.94,14.94,0,0,1-2.11,2.6,2.71,2.71,0,0,1,.14.86Zm1.83-3.65.13-.06-.13.06Z" transform="translate(3.96 2.44)"/><path class="cls-25" d="M348.34,154.41a15.13,15.13,0,0,1-2.36,1.07,3.41,3.41,0,0,1-1.84,2.09,20,20,0,0,0,3.16-1,3.36,3.36,0,0,0,1-2.2Z" transform="translate(3.96 2.44)"/><path class="cls-12" d="M344.06,157.46a3.25,3.25,0,0,0,1.78-2l0-.06.06,0a16.33,16.33,0,0,0,2.34-1.06l.24-.13v.23a3.49,3.49,0,0,1-1.07,2.27l0,0,0,0a19.94,19.94,0,0,1-3.18,1l-.12-.22Zm.8-.19a18.75,18.75,0,0,0,2.34-.76,3.28,3.28,0,0,0,1-1.87,14,14,0,0,1-2.06.92,3.33,3.33,0,0,1-1.25,1.71Z" transform="translate(3.96 2.44)"/><path class="cls-25" d="M355.71,146.86a1,1,0,0,0-1.15.45,16.33,16.33,0,0,1-1.12,2.17,2.82,2.82,0,0,1,.6,2.12,16.59,16.59,0,0,0,2.22-3.79.72.72,0,0,0-.55-.95Z" transform="translate(3.96 2.44)"/><path class="cls-12" d="M353.89,151.59a2.18,2.18,0,0,0,0-.35,2.73,2.73,0,0,0-.6-1.7l0,0,0-.06a17.34,17.34,0,0,0,1.11-2.15,1.06,1.06,0,0,1,1-.58,1,1,0,0,1,.35.05l-.05.11,0,.12a.73.73,0,0,0-.25,0,.76.76,0,0,0-.71.42,18.12,18.12,0,0,1-1.09,2.11,3,3,0,0,1,.6,1.68,17.1,17.1,0,0,0,1.91-3.38.54.54,0,0,0,.05-.21.63.63,0,0,0-.51-.58l0-.12.05-.11a.88.88,0,0,1,.7.81.75.75,0,0,1-.06.29,16.56,16.56,0,0,1-2.24,3.81l-.27-.07Z" transform="translate(3.96 2.44)"/><path class="cls-25" d="M351.18,152.3a13.76,13.76,0,0,1-2.84,2.11,3.36,3.36,0,0,1-1,2.2,17.22,17.22,0,0,0,3.65-2,2.74,2.74,0,0,0,.23-2.3Z" transform="translate(3.96 2.44)"/><path class="cls-12" d="M347.18,156.53a3.3,3.3,0,0,0,1-2.12v-.07l.06,0a13.4,13.4,0,0,0,2.81-2.09l.18-.17.07.21a2.82,2.82,0,0,1,.16.93,3,3,0,0,1-.4,1.46v0l0,0a17.14,17.14,0,0,1-3.69,2l-.18-.19Zm.58-.25a15.78,15.78,0,0,0,3.07-1.76,2.78,2.78,0,0,0,.35-1.33,3.14,3.14,0,0,0-.07-.64,13.73,13.73,0,0,1-2.62,1.92,3.26,3.26,0,0,1-.73,1.81Zm3.28-3.95.14,0-.14,0Z" transform="translate(3.96 2.44)"/><path class="cls-29" d="M353.88,151a15.33,15.33,0,0,1-2.42,2.47,2,2,0,0,1-.07.4,1.9,1.9,0,0,1-.09.29,16.05,16.05,0,0,0,2.6-2.61c0-.07,0-.13,0-.19v-.13a1.55,1.55,0,0,0,0-.22Z" transform="translate(3.96 2.44)"/><path class="cls-30" d="M351.46,153.48h0a2,2,0,0,1-.07.4,2,2,0,0,0,.07-.4Zm2.44-1.92a16.05,16.05,0,0,1-2.6,2.61,2.44,2.44,0,0,1-.1.24,15.11,15.11,0,0,0,2.82-2.78l-.13,0a0,0,0,0,1,0,0Zm0-.54a1.55,1.55,0,0,1,0,.22v0a1.55,1.55,0,0,0,0-.22Z" transform="translate(3.96 2.44)"/><path class="cls-29" d="M356.09,147.29a17.09,17.09,0,0,1-1.94,3.37,3.65,3.65,0,0,1,.06.49,17.1,17.1,0,0,0,1.91-3.38.54.54,0,0,0,.05-.21.5.5,0,0,0-.08-.27Z" transform="translate(3.96 2.44)"/><path class="cls-30" d="M356.15,147.13l0,.07a.36.36,0,0,0,0,.09.5.5,0,0,1,.08.27.54.54,0,0,1-.05.21,17.1,17.1,0,0,1-1.91,3.38,3.65,3.65,0,0,0-.06-.49h0c0,.05,0,.1,0,.14v0l0,0-.13.17-.12,0a1.55,1.55,0,0,1,0,.22v.13c0,.06,0,.12,0,.19a0,0,0,0,0,0,0l.13,0,0,0a16.59,16.59,0,0,0,2.22-3.79.65.65,0,0,0-.11-.68Z" transform="translate(3.96 2.44)"/><path class="cls-29" d="M345.13,156.68c-.37.1-.75.2-1.12.28l-1.3.24h-.1c-.41.06-.81.11-1.22.15l0,0h0a4.31,4.31,0,0,1-.64.5c.66,0,1.34-.11,2-.22h.1c.42-.06.84-.15,1.26-.24a3.91,3.91,0,0,0,1.05-.77Z" transform="translate(3.96 2.44)"/><path class="cls-30" d="M341.34,157.41h0Zm0,0Zm.05,0h0l0,0,0,0Zm3.74-.68h0a3.91,3.91,0,0,1-1.05.77c-.42.09-.84.18-1.26.24h-.1c-.69.11-1.37.18-2,.22l-.23.13c.74,0,1.51-.11,2.29-.23h.1l1.27-.24-.06-.11a4.11,4.11,0,0,0,1.07-.78Z" transform="translate(3.96 2.44)"/><path class="cls-29" d="M341,157.4l-.94.06-1.4,0c-.38,0-.75,0-1.12,0a3,3,0,0,1-.37.34h0s-.1.07-.15.11c.56,0,1.16,0,1.77,0l1.37,0a4.46,4.46,0,0,0,.85-.55Z" transform="translate(3.96 2.44)"/><path class="cls-30" d="M337.13,157.81h0Zm4.26-.45-.22,0-.21,0a4.46,4.46,0,0,1-.85.55l-1.37,0c-.61,0-1.21,0-1.77,0,0,0,.11-.07.15-.11l-.31.22c.61,0,1.26.07,1.93.07.46,0,.93,0,1.42,0l.3,0,.23-.13a4.31,4.31,0,0,0,.64-.5h0l0,0Z" transform="translate(3.96 2.44)"/><path class="cls-29" d="M336.24,157.4q0,.22.09.48l.22,0a4.12,4.12,0,0,0,.59-.44l-.68,0-.22,0Z" transform="translate(3.96 2.44)"/><path class="cls-30" d="M337.14,157.46a4.12,4.12,0,0,1-.59.44l-.22,0a.51.51,0,0,0,0,.13l.24,0h.22l.31-.22h0a3,3,0,0,0,.37-.34h-.36Z" transform="translate(3.96 2.44)"/><path class="cls-29" d="M347.8,155.73l-.64.27c-.51.2-1,.38-1.55.54a3.73,3.73,0,0,1-.75.73,18.75,18.75,0,0,0,2.34-.76l.28-.32h0a4,4,0,0,0,.31-.45Z" transform="translate(3.96 2.44)"/><path class="cls-30" d="M347.48,156.19l-.28.32a18.75,18.75,0,0,1-2.34.76,3.73,3.73,0,0,0,.75-.73l-.24.07-.24.07a4.11,4.11,0,0,1-1.07.78l.06.11h0a20.74,20.74,0,0,0,3.13-.95l-.09-.09c.11-.11.21-.23.3-.34Zm0,0Zm0,0Z" transform="translate(3.96 2.44)"/><path class="cls-29" d="M331.25,156.5s0,.05,0,.07a.65.65,0,0,0,.51.58h0s.53.14,1.38.31a4.78,4.78,0,0,0,.55-.37L333,157c-.89-.17-1.42-.31-1.44-.32h0a.85.85,0,0,1-.33-.16Z" transform="translate(3.96 2.44)"/><path class="cls-30" d="M331.13,156.39a.72.72,0,0,0,.59.88h0s.47.13,1.24.28l.12-.06a4.81,4.81,0,0,0,.6-.4h0a4.78,4.78,0,0,1-.55.37c-.85-.17-1.34-.3-1.38-.31h0a.65.65,0,0,1-.51-.58s0,0,0-.07a.65.65,0,0,1-.12-.11Z" transform="translate(3.96 2.44)"/><path class="cls-29" d="M334,157.14a5.42,5.42,0,0,1-.52.39c.38.06.8.13,1.28.19v0h0v-.05h0l-.06-.29s0-.07,0-.1l-.66-.1Z" transform="translate(3.96 2.44)"/><path class="cls-30" d="M333.68,157.09a4.81,4.81,0,0,1-.6.4l-.12.06.2,0c.46.08,1,.18,1.65.26v0l0-.11c-.48-.06-.9-.13-1.28-.19a5.42,5.42,0,0,0,.52-.39l-.19,0-.16,0Z" transform="translate(3.96 2.44)"/><path class="cls-29" d="M351.12,153.75l-.31.24a15.32,15.32,0,0,1-2.6,1.54,3.73,3.73,0,0,1-.45.75,15.78,15.78,0,0,0,3.07-1.76,2.73,2.73,0,0,0,.29-.77Z" transform="translate(3.96 2.44)"/><path class="cls-30" d="M351.46,153.48l-.16.13-.18.14a2.73,2.73,0,0,1-.29.77,15.78,15.78,0,0,1-3.07,1.76,3.73,3.73,0,0,0,.45-.75l-.2.1-.21.1a4,4,0,0,1-.31.45h0c-.09.11-.19.23-.3.34l.09.09h0a17.22,17.22,0,0,0,3.65-2l.25-.19a2.44,2.44,0,0,0,.1-.24,1.9,1.9,0,0,0,.09-.29,2,2,0,0,0,.07-.4Z" transform="translate(3.96 2.44)"/><path class="cls-25" d="M353.91,150.34a2.85,2.85,0,0,1,0,.65l.12-.17a2.4,2.4,0,0,0-.11-.48Z" transform="translate(3.96 2.44)"/><path class="cls-12" d="M353.76,151c0-.12,0-.24,0-.35a2.46,2.46,0,0,0,0-.28l.29,0a4.05,4.05,0,0,1,.12.5v0l0,0-.13.17-.26-.07Zm0-.61.14,0-.14,0Z" transform="translate(3.96 2.44)"/><path class="cls-26" d="M353.69,150.16a17.65,17.65,0,0,1-2.28,2.42,2.63,2.63,0,0,1,.06.39,12.64,12.64,0,0,0,2.29-2.59v0c0-.07-.05-.13-.07-.2Z" transform="translate(3.96 2.44)"/><path class="cls-15" d="M351.41,152.58h0a2.63,2.63,0,0,1,.06.39h0a2.63,2.63,0,0,0-.06-.39Zm2.28-2.42h0c0,.07.05.13.07.2h0l-.07-.19Z" transform="translate(3.96 2.44)"/><path class="cls-26" d="M355.17,147.6a9.93,9.93,0,0,1-1.29,2.31.89.89,0,0,1,.08.17,11.28,11.28,0,0,0,1.21-2.48Z" transform="translate(3.96 2.44)"/><path class="cls-15" d="M353.88,149.91l-.19.25.07.19h0l.17-.26a.89.89,0,0,0-.08-.17Z" transform="translate(3.96 2.44)"/><path class="cls-26" d="M348.08,155.09l-.07,0,.07,0Z" transform="translate(3.96 2.44)"/><path class="cls-26" d="M351.16,152.81a25,25,0,0,1-2.72,2.05s0,0,0,0l.89-.47a12.21,12.21,0,0,0,1.86-1.22v0c0-.14,0-.26,0-.38Z" transform="translate(3.96 2.44)"/><path class="cls-15" d="M348.44,154.86l-.36.23h0l.35-.19s0,0,0,0Zm3-2.28-.25.23c0,.12,0,.24,0,.38v0l.29-.24a2.63,2.63,0,0,0-.06-.39Z" transform="translate(3.96 2.44)"/><path class="cls-15" d="M353.79,150.34h0v0l0,0Z" transform="translate(3.96 2.44)"/><path class="cls-25" d="M337.48,169.6a1.76,1.76,0,0,1-2.1.9,1.34,1.34,0,0,1-1.09-1.72,1.75,1.75,0,0,1,2.1-.9,1.34,1.34,0,0,1,1.09,1.72Z" transform="translate(3.96 2.44)"/><path class="cls-12" d="M335.33,170.62a1.56,1.56,0,0,1-1.27-1.43,1.42,1.42,0,0,1,.08-.45,1.84,1.84,0,0,1,1.74-1.05,2.08,2.08,0,0,1,.55.07,1.55,1.55,0,0,1,1.27,1.43,1.19,1.19,0,0,1-.08.45l-.14,0,.14,0a1.82,1.82,0,0,1-1.74,1.05,2.59,2.59,0,0,1-.55-.07Zm-.91-1.81a1.27,1.27,0,0,0-.07.38,1.32,1.32,0,0,0,1.07,1.2,1.88,1.88,0,0,0,.46.06,1.55,1.55,0,0,0,1.46-.88,1.06,1.06,0,0,0,.07-.38,1.31,1.31,0,0,0-1.07-1.2,1.82,1.82,0,0,0-.46-.06,1.55,1.55,0,0,0-1.46.88Z" transform="translate(3.96 2.44)"/><path class="cls-26" d="M335.87,170.19a1.47,1.47,0,0,1-.36,0,1,1,0,0,1-.77-1.21,1,1,0,0,1,.42-.49l-.05.09a1,1,0,0,0,.77,1.22,1.45,1.45,0,0,0,.35,0,1.39,1.39,0,0,0,.71-.19h0a1.19,1.19,0,0,1-1.07.58Zm.76-1a.65.65,0,0,1-.41-.15.34.34,0,0,1,0-.54.44.44,0,0,1,.25-.08.6.6,0,0,1,.4.15.35.35,0,0,1,.05.54.38.38,0,0,1-.25.08Zm-.23-1a.78.78,0,0,1-.62.28h0a.85.85,0,0,1-.54-.21,1.18,1.18,0,0,0-.64.64,1.11,1.11,0,0,0,.9,1.42,2,2,0,0,0,.41,0,1.39,1.39,0,0,0,1.32-.79,1.1,1.1,0,0,0-.8-1.39Z" transform="translate(3.96 2.44)"/><path class="cls-27" d="M335.16,168.45a1,1,0,0,0-.42.49,1,1,0,0,0,.77,1.21,1.47,1.47,0,0,0,.36,0,1.19,1.19,0,0,0,1.07-.58,1.39,1.39,0,0,1-.71.19,1.45,1.45,0,0,1-.35,0,1,1,0,0,1-.77-1.22l.05-.09Z" transform="translate(3.96 2.44)"/><path class="cls-28" d="M336.43,168.39a.44.44,0,0,0-.25.08.34.34,0,0,0,0,.54.65.65,0,0,0,.41.15.38.38,0,0,0,.25-.08.35.35,0,0,0-.05-.54.6.6,0,0,0-.4-.15Z" transform="translate(3.96 2.44)"/><path class="cls-25" d="M336.41,160a16.3,16.3,0,0,0-.5-3.38,3.47,3.47,0,0,0-.64-1.31l-.1-.1a3.12,3.12,0,0,1-.25,2.42,22.45,22.45,0,0,1,.33,3.24,3,3,0,0,0,1.16-.87Z" transform="translate(3.96 2.44)"/><path class="cls-12" d="M335.11,160.91a22.12,22.12,0,0,0-.33-3.23v-.05l0,0a2.1,2.1,0,0,0,.35-1.27,4.88,4.88,0,0,0-.13-1.06l-.09-.43.35.33s.07.06.11.11a3.47,3.47,0,0,1,.66,1.35,15.86,15.86,0,0,1,.51,3.41h0v0l0,0a3.23,3.23,0,0,1-1.21.91l-.21.09v-.19Zm.28-.21a3.2,3.2,0,0,0,.87-.7,16.42,16.42,0,0,0-.49-3.32,4.66,4.66,0,0,0-.36-.9,4.75,4.75,0,0,1,0,.54,2.34,2.34,0,0,1-.36,1.36,22.08,22.08,0,0,1,.31,3Z" transform="translate(3.96 2.44)"/><path class="cls-25" d="M335.25,166c0,.57,0,1.16-.07,1.79a.53.53,0,0,0,.57.51h0a.57.57,0,0,0,.6-.47c0-1,.08-1.93.1-2.79a3.14,3.14,0,0,1-1.23,1Z" transform="translate(3.96 2.44)"/><path class="cls-12" d="M335.78,168.42h0a.68.68,0,0,1-.72-.61v0c0-.63.05-1.21.07-1.78v-.07l.08,0a3,3,0,0,0,1.17-.91l.28-.37V165c0,.86-.05,1.78-.1,2.79a.69.69,0,0,1-.74.59Zm-.46-.63v0a.41.41,0,0,0,.43.37h0a.42.42,0,0,0,.45-.36c0-.86.07-1.65.09-2.39a3.38,3.38,0,0,1-.93.64c0,.55,0,1.12-.07,1.72Z" transform="translate(3.96 2.44)"/><path class="cls-25" d="M335.17,155.24a1.33,1.33,0,0,0-.94-.39,1.58,1.58,0,0,0-1.2.59.44.44,0,0,0,.17.68A.69.69,0,0,0,334,156l0,0,.13-.1,0,0a2.81,2.81,0,0,1,.63,1.48,2.9,2.9,0,0,1,.07.34,3.12,3.12,0,0,0,.25-2.42Z" transform="translate(3.96 2.44)"/><path class="cls-12" d="M334.78,157.68c0-.12,0-.24-.07-.34a3.36,3.36,0,0,0-.52-1.33l0,0h0a.82.82,0,0,1-.62.26.9.9,0,0,1-.42-.1.6.6,0,0,1-.33-.51.55.55,0,0,1,.13-.34l0,0h0l.05-.06a2.75,2.75,0,0,1,.23-.21,1.89,1.89,0,0,1,1-.34h0a1.57,1.57,0,0,1,1,.44l-.11.08-.15,0,.15,0,.11-.08,0,0v0a5.11,5.11,0,0,1,.13,1.1,2.33,2.33,0,0,1-.39,1.4l-.21.28-.06-.32Zm-.46-1.93a2.84,2.84,0,0,1,.67,1.5,2.4,2.4,0,0,0,.16-.93,5.39,5.39,0,0,0-.12-1,1.27,1.27,0,0,0-.78-.33h0a1.41,1.41,0,0,0-1,.45l-.09.1a.39.39,0,0,0-.08.2.37.37,0,0,0,.21.31.54.54,0,0,0,.25.06.5.5,0,0,0,.37-.15h0l0,0a.47.47,0,0,1,.15-.12l0,0h0l.1-.05.09.06Z" transform="translate(3.96 2.44)"/><path class="cls-25" d="M335.3,163.08v.09c0,.85,0,1.79-.05,2.83a3.14,3.14,0,0,0,1.23-1c0-.66,0-1.29,0-1.87,0-.37,0-.71,0-1a3.13,3.13,0,0,1-1.19,1Z" transform="translate(3.96 2.44)"/><path class="cls-12" d="M335.1,166c0-1,0-2,0-2.83V163l.08,0a3,3,0,0,0,1.14-.92l.26-.35v.42c0,.33,0,.67,0,1,0,.58,0,1.21,0,1.87v0l0,0a3.25,3.25,0,0,1-1.28,1l-.23.1V166Zm.35-2.83c0,.79,0,1.66-.05,2.62a3,3,0,0,0,.93-.78c0-.66,0-1.27,0-1.84v-.67a3.42,3.42,0,0,1-.9.65v0Z" transform="translate(3.96 2.44)"/><path class="cls-25" d="M335.25,160.9c0,.65.05,1.37.05,2.18a3.13,3.13,0,0,0,1.19-1c0-.78,0-1.48-.08-2.1a3,3,0,0,1-1.16.87Z" transform="translate(3.96 2.44)"/><path class="cls-12" d="M335.15,163.08c0-.81,0-1.52,0-2.17v-.08l.08,0a3,3,0,0,0,1.11-.84l.24-.29,0,.36c0,.62.07,1.32.08,2.1v0l0,0a3.37,3.37,0,0,1-1.25,1l-.22.1v-.21Zm.3-.22a3,3,0,0,0,.9-.76c0-.64,0-1.21-.07-1.73a3,3,0,0,1-.88.6c0,.57,0,1.2.05,1.89Z" transform="translate(3.96 2.44)"/><path class="cls-29" d="M335.41,155.78a4.89,4.89,0,0,1,0,.54,4,4,0,0,1,0,.49,11.54,11.54,0,0,1,.55,3.49q.17-.15.3-.3a16.42,16.42,0,0,0-.49-3.32,4.66,4.66,0,0,0-.36-.9Z" transform="translate(3.96 2.44)"/><path class="cls-30" d="M335.36,155.45c0,.1,0,.22.05.33a4.66,4.66,0,0,1,.36.9,16.42,16.42,0,0,1,.49,3.32q-.13.15-.3.3h0a2.1,2.1,0,0,0,.33-.34l.11-.13a15.67,15.67,0,0,0-.49-3.18,3.74,3.74,0,0,0-.55-1.2Z" transform="translate(3.96 2.44)"/><path class="cls-29" d="M334.25,155h0a2.26,2.26,0,0,0-.44.09,2,2,0,0,1,1.35,1.18,5.36,5.36,0,0,0-.12-.94,1.27,1.27,0,0,0-.78-.33Z" transform="translate(3.96 2.44)"/><path class="cls-30" d="M334.24,154.85h0a1.74,1.74,0,0,0-.7.18h.07a.87.87,0,0,1,.2,0,2.26,2.26,0,0,1,.44-.09h0a1.27,1.27,0,0,1,.78.33,5.36,5.36,0,0,1,.12.94c.05.09.09.19.14.29l.12.29a4,4,0,0,0,0-.49,4.89,4.89,0,0,0,0-.54c0-.11,0-.23-.05-.33l-.09-.11-.1-.1a1.4,1.4,0,0,0-.93-.39Z" transform="translate(3.96 2.44)"/><path class="cls-29" d="M336.32,165.43h0a2.61,2.61,0,0,1-.43.35c0,.94-.05,1.77-.08,2.4a.42.42,0,0,0,.42-.36c0-.86.07-1.65.09-2.39Z" transform="translate(3.96 2.44)"/><path class="cls-30" d="M336.47,165.26l-.15.17h0c0,.74-.05,1.53-.09,2.39a.42.42,0,0,1-.42.36v.12a.58.58,0,0,0,.57-.47c0-.93.07-1.77.09-2.57Z" transform="translate(3.96 2.44)"/><path class="cls-29" d="M336.35,162.5l-.13.13-.26.21c0,.91,0,1.8-.06,2.61a3.51,3.51,0,0,0,.43-.44c0-.66,0-1.27,0-1.84v-.67Z" transform="translate(3.96 2.44)"/><path class="cls-30" d="M336.22,162.63l-.26.21h0l.26-.21Zm.28-.29-.15.16v.67c0,.57,0,1.18,0,1.84a3.51,3.51,0,0,1-.43.44v.16a.91.91,0,0,1,0,.17,2.61,2.61,0,0,0,.43-.35l.15-.17c0-.07,0-.14,0-.22,0-.66,0-1.29,0-1.87v-.83Z" transform="translate(3.96 2.44)"/><path class="cls-29" d="M336.28,160.37a2.66,2.66,0,0,1-.31.26V161c0,.51,0,1,0,1.53a3.63,3.63,0,0,0,.39-.4c0-.64,0-1.21-.07-1.73Z" transform="translate(3.96 2.44)"/><path class="cls-30" d="M336.4,159.83l-.11.13a2.1,2.1,0,0,1-.33.34v.33a2.66,2.66,0,0,0,.31-.26c0,.52.05,1.09.07,1.73a3.63,3.63,0,0,1-.39.4v.34l.26-.21.13-.13.15-.16c0-.07,0-.14,0-.21,0-.78,0-1.48-.08-2.1,0-.07,0-.13,0-.2Z" transform="translate(3.96 2.44)"/><path class="cls-26" d="M335.52,158.28h0c-.09,0-.15.06-.14.13h0s.08,1,.15,2.21c.11-.06.2-.13.29-.19-.07-1.16-.14-2-.14-2a.14.14,0,0,0-.15-.11Z" transform="translate(3.96 2.44)"/><path class="cls-15" d="M335.81,160.43c-.09.06-.18.13-.29.19h0c.11-.06.2-.13.29-.19Z" transform="translate(3.96 2.44)"/><path class="cls-26" d="M335.92,162.87l-.3.19c0,.2,0,.4,0,.6a13.75,13.75,0,0,1-.06,1.4c0,.07.05.13.14.13h0a.14.14,0,0,0,.15-.11c0-.38.05-.87.05-1.42v-.79Z" transform="translate(3.96 2.44)"/><path class="cls-15" d="M335.92,162.87l-.3.19h0l.3-.19Z" transform="translate(3.96 2.44)"/><path class="cls-26" d="M335.83,160.73l-.29.17c0,.6.06,1.24.07,1.86a2.28,2.28,0,0,0,.3-.21c0-.61-.05-1.24-.08-1.82Z" transform="translate(3.96 2.44)"/><path class="cls-15" d="M335.91,162.55a2.28,2.28,0,0,1-.3.21c0,.1,0,.2,0,.3l.3-.19c0-.11,0-.21,0-.32Zm-.1-2.12c-.09.06-.18.13-.29.19s0,.19,0,.28l.29-.17c0-.1,0-.2,0-.3Z" transform="translate(3.96 2.44)"/><path class="cls-31" d="M58.42-2.32s55.87,89.88,106.94,0Z" transform="translate(3.96 2.44)"/><path class="cls-12" d="M58.29-2.26l-.11-.18H165.59l-.1.17c-17,30-34.63,40-50.56,40-31.83,0-56.63-40-56.64-40Zm4.63,6.12a124.78,124.78,0,0,0,12,13.72c10.15,10,24.26,19.93,40,19.93s33.21-9.9,50.2-39.71H58.66c.4.63,1.87,2.89,4.26,6.06ZM58.42-2.2v0Z" transform="translate(3.96 2.44)"/><path class="cls-32" d="M100.71,17.25Zm33.55-2.9a71.65,71.65,0,0,1-23,3.87,49.49,49.49,0,0,1-10.55-1,68.1,68.1,0,0,0,8.75,1.86v0h0l.41.07a57.3,57.3,0,0,0,7.63.53A48.18,48.18,0,0,0,136,16.14c-.58-.6-1.15-1.19-1.71-1.79Z" transform="translate(3.96 2.44)"/><path class="cls-33" d="M118.7,15.79h0Zm-24-3.39c-.44.59-.88,1.17-1.32,1.73a70.82,70.82,0,0,0,17.22,2.1,76.71,76.71,0,0,0,8-.43c-.28,0-1.07.09-2.38.09-3.54,0-10.8-.48-21.51-3.49Z" transform="translate(3.96 2.44)"/><path class="cls-32" d="M128.84,8.16a68.47,68.47,0,0,1-15.65,1.78,61.93,61.93,0,0,1-12.92-1.23,48.19,48.19,0,0,0,18.1,3.72A40.63,40.63,0,0,0,130.8,10.5c-.69-.8-1.34-1.58-2-2.34Z" transform="translate(3.96 2.44)"/><path class="cls-33" d="M124.75,2.91a134.38,134.38,0,0,1-15.55.88c-2.94,0-5.77-.09-8.46-.24C100,4.72,99.28,5.85,98.55,7a74.07,74.07,0,0,0,10.92.83A64.12,64.12,0,0,0,126.7,5.49c-.72-.92-1.37-1.79-2-2.58Z" transform="translate(3.96 2.44)"/><path class="cls-12" d="M117.74,20a44.87,44.87,0,0,1-8.35-.7l.07-.23s.83.17,2.28.34a49.34,49.34,0,0,0,6,.35c9.22,0,24.14-2.37,34.52-15.95l.25.13C142.07,17.61,127,20,117.75,20h0Z" transform="translate(3.96 2.44)"/><path class="cls-33" d="M87.17,21.32c-.21.22-.41.44-.62.65,6.2,5.46,16.32,12,29.27,12A40.67,40.67,0,0,0,125,32.87a30,30,0,0,1-4.43.27c-6.63,0-19.81-1.53-33.35-11.82Z" transform="translate(3.96 2.44)"/><path class="cls-32" d="M140,20a45.37,45.37,0,0,1-24.86,7.61,47.37,47.37,0,0,1-12.85-1.82,35.31,35.31,0,0,0,17.66,4.88c6.63,0,14.41-2.07,22-8.91-.67-.58-1.32-1.17-2-1.76Z" transform="translate(3.96 2.44)"/><path class="cls-33" d="M92.46,18.09c8.69,5.57,16.25,7.36,22.37,7.36,11.08,0,17.48-5.88,17.48-5.88A47.23,47.23,0,0,1,115,22.74a57.41,57.41,0,0,1-22.53-4.65Z" transform="translate(3.96 2.44)"/><path class="cls-31" d="M184.58-2.32s55.87,89.88,106.93,0Z" transform="translate(3.96 2.44)"/><path class="cls-12" d="M184.45-2.26l-.11-.18h107.4l-.09.17c-17,30-34.63,40-50.56,40-31.83,0-56.63-40-56.64-40Zm4.63,6.12a124.78,124.78,0,0,0,12,13.72c10.15,10,24.26,19.93,40,19.93s33.21-9.9,50.19-39.71H184.82c.4.63,1.87,2.9,4.26,6.06Zm-4.5-6.06v0Z" transform="translate(3.96 2.44)"/><path class="cls-32" d="M226.87,17.25Zm34.28-3.15a71.67,71.67,0,0,1-23.73,4.12,49.49,49.49,0,0,1-10.55-1,68.33,68.33,0,0,0,8.74,1.86v0h0l.4.07a57.59,57.59,0,0,0,7.65.53,48.2,48.2,0,0,0,19.15-3.83c-.57-.59-1.13-1.18-1.67-1.76Z" transform="translate(3.96 2.44)"/><path class="cls-33" d="M244.86,15.79h0Zm-25.65-3.87c-.44.61-.89,1.2-1.33,1.77a70.63,70.63,0,0,0,18.88,2.54,76.71,76.71,0,0,0,8-.43c-.27,0-1.07.09-2.38.09-3.72,0-11.55-.52-23.16-4Z" transform="translate(3.96 2.44)"/><path class="cls-32" d="M255.8,8a68.27,68.27,0,0,1-16.45,2,61.93,61.93,0,0,1-12.92-1.23,48.19,48.19,0,0,0,18.1,3.72,40.54,40.54,0,0,0,13.18-2.18c-.67-.78-1.3-1.54-1.91-2.28Z" transform="translate(3.96 2.44)"/><path class="cls-33" d="M251.8,2.8a133.62,133.62,0,0,1-16.44,1c-3.65,0-7.13-.14-10.38-.36-.69,1.1-1.39,2.18-2.08,3.23a74.83,74.83,0,0,0,12.73,1.12,63.57,63.57,0,0,0,18-2.52c-.68-.88-1.3-1.7-1.85-2.46Z" transform="translate(3.96 2.44)"/><path class="cls-12" d="M243.9,20a44.87,44.87,0,0,1-8.35-.7h0l.07-.23a44.73,44.73,0,0,0,8.28.69c9.22,0,24.14-2.37,34.52-15.95l.25.13C268.23,17.61,253.18,20,243.91,20Z" transform="translate(3.96 2.44)"/><path class="cls-33" d="M212.18,20.43l-.54.57c6.08,5.63,16.61,12.93,30.34,12.93a40.74,40.74,0,0,0,9.13-1.06,30,30,0,0,1-4.43.27c-6.82,0-20.57-1.62-34.5-12.71Z" transform="translate(3.96 2.44)"/><path class="cls-32" d="M266.7,19.66a45.41,45.41,0,0,1-25.42,8,47.37,47.37,0,0,1-12.85-1.82,35.31,35.31,0,0,0,17.66,4.88c6.77,0,14.73-2.15,22.49-9.34-.64-.57-1.27-1.14-1.88-1.71Z" transform="translate(3.96 2.44)"/><path class="cls-33" d="M218.62,18.09c8.69,5.57,16.25,7.36,22.37,7.36,11.08,0,17.48-5.88,17.48-5.88a47.23,47.23,0,0,1-17.32,3.17,57.41,57.41,0,0,1-22.53-4.65Z" transform="translate(3.96 2.44)"/><path class="cls-31" d="M248.42-2.32s55.88,89.88,106.94,0Z" transform="translate(3.96 2.44)"/><path class="cls-12" d="M248.29-2.26l-.11-.18H355.59l-.1.17c-17,30-34.62,40-50.55,40-31.83,0-56.63-40-56.65-40Zm4.63,6.12a124.78,124.78,0,0,0,12,13.72c10.16,10,24.27,19.93,40,19.93s33.2-9.9,50.19-39.71H248.66c.4.63,1.88,2.89,4.26,6.06Zm-4.5-6.06v0Z" transform="translate(3.96 2.44)"/><path class="cls-32" d="M290.71,17.25Zm48.74-10a73.77,73.77,0,0,1-38.19,11,49.61,49.61,0,0,1-10.55-1,62.18,62.18,0,0,0,16.8,2.43c21.13,0,31.94-12.42,31.94-12.42Z" transform="translate(3.96 2.44)"/><path class="cls-33" d="M308.7,15.79h0Zm-49.06-13s15.28,13.45,41,13.45a76.42,76.42,0,0,0,8-.43c-.27,0-1.07.09-2.38.09-5.82,0-21.78-1.3-46.57-13.11Z" transform="translate(3.96 2.44)"/><path class="cls-32" d="M337.94-.18c-12,8.26-25.27,10.12-34.75,10.12a61.76,61.76,0,0,1-12.91-1.23,48.16,48.16,0,0,0,18.1,3.72A41.05,41.05,0,0,0,337.94-.18Z" transform="translate(3.96 2.44)"/><path class="cls-33" d="M264.44-.34c13.56,6.11,25.37,8.12,35,8.12,18.43,0,29-7.3,29-7.3A126,126,0,0,1,299.2,3.79,143.1,143.1,0,0,1,264.44-.34Z" transform="translate(3.96 2.44)"/><path class="cls-12" d="M307.75,20a45.06,45.06,0,0,1-8.36-.7h0l.08-.23a44.46,44.46,0,0,0,8.28.69c9.21,0,24.13-2.37,34.52-15.95l.25.13C332.07,17.62,317,20,307.76,20Z" transform="translate(3.96 2.44)"/><path class="cls-33" d="M269.6,14.6s13.88,19.33,36.23,19.33A40.74,40.74,0,0,0,315,32.87a30,30,0,0,1-4.43.27c-7.87,0-25-2.15-40.93-18.54Z" transform="translate(3.96 2.44)"/><path class="cls-32" d="M342.29,8.92s-13.7,18.73-37.16,18.73a47.26,47.26,0,0,1-12.85-1.82,35.31,35.31,0,0,0,17.66,4.88c9.7,0,21.87-4.44,32.35-21.79Z" transform="translate(3.96 2.44)"/><path class="cls-33" d="M282.47,18.09c8.69,5.57,16.24,7.36,22.36,7.36,11.09,0,17.49-5.88,17.49-5.88A47.31,47.31,0,0,1,305,22.74a57.39,57.39,0,0,1-22.52-4.65Z" transform="translate(3.96 2.44)"/><path class="cls-31" d="M121.3-2.32s55.87,89.88,106.93,0Z" transform="translate(3.96 2.44)"/><path class="cls-12" d="M121.17-2.26l-.11-.18h107.4l-.09.17c-17,30-34.63,40-50.56,40-31.83,0-56.63-40-56.64-40Zm4.63,6.12a124.78,124.78,0,0,0,12,13.72c10.15,10,24.26,19.93,40,19.93S211,27.61,228-2.2H121.54c.4.63,1.87,2.9,4.26,6.06ZM121.3-2.2v0Z" transform="translate(3.96 2.44)"/><path class="cls-32" d="M163.59,17.25Zm48.73-10a73.76,73.76,0,0,1-38.18,11,49.49,49.49,0,0,1-10.55-1,62.21,62.21,0,0,0,16.79,2.44c21.13,0,31.94-12.43,31.94-12.43Z" transform="translate(3.96 2.44)"/><path class="cls-33" d="M181.57,15.79h0Zm-49.06-13s15.29,13.45,41,13.45a76.71,76.71,0,0,0,8-.43c-.27,0-1.08.09-2.38.09-5.83,0-21.79-1.3-46.58-13.11Z" transform="translate(3.96 2.44)"/><path class="cls-32" d="M210.81-.18c-12,8.26-25.26,10.12-34.74,10.12a61.93,61.93,0,0,1-12.92-1.23,48.19,48.19,0,0,0,18.1,3.72A41,41,0,0,0,210.81-.18Z" transform="translate(3.96 2.44)"/><path class="cls-33" d="M137.32-.34c13.56,6.11,25.36,8.12,35,8.12,18.43,0,29.05-7.3,29.05-7.3a125.92,125.92,0,0,1-29.33,3.31A143,143,0,0,1,137.32-.34Z" transform="translate(3.96 2.44)"/><path class="cls-12" d="M180.62,20a45,45,0,0,1-8.35-.7l.07-.23s.83.17,2.28.34a49.2,49.2,0,0,0,6,.35c9.22,0,24.14-2.37,34.52-15.95l.25.13C205,17.61,189.91,20,180.64,20Z" transform="translate(3.96 2.44)"/><path class="cls-33" d="M142.47,14.6s13.89,19.33,36.23,19.33a40.74,40.74,0,0,0,9.13-1.06,30,30,0,0,1-4.43.27c-7.87,0-25-2.15-40.93-18.54Z" transform="translate(3.96 2.44)"/><path class="cls-32" d="M215.17,8.92S201.47,27.65,178,27.65a47.37,47.37,0,0,1-12.85-1.82,35.31,35.31,0,0,0,17.66,4.88c9.71,0,21.87-4.44,32.36-21.79Z" transform="translate(3.96 2.44)"/><path class="cls-33" d="M155.34,18.09c8.7,5.57,16.25,7.36,22.37,7.36,11.08,0,17.48-5.88,17.48-5.88a47.23,47.23,0,0,1-17.32,3.17,57.41,57.41,0,0,1-22.53-4.65Z" transform="translate(3.96 2.44)"/><path class="cls-31" d="M-2.86-2.32S53,87.56,104.08-2.32Z" transform="translate(3.96 2.44)"/><path class="cls-12" d="M-3-2.26l-.11-.18H104.31l-.1.17c-17,30-34.62,40-50.55,40C21.82,37.72-3-2.26-3-2.26ZM1.64,3.86a124.78,124.78,0,0,0,12,13.72c10.16,10,24.26,19.93,40,19.93s33.2-9.9,50.19-39.71H-2.62c.4.63,1.87,2.89,4.26,6.06ZM-2.86-2.2v0Z" transform="translate(3.96 2.44)"/><path class="cls-32" d="M39.43,17.25Zm48.73-10A73.71,73.71,0,0,1,50,18.22a49.49,49.49,0,0,1-10.55-1,62.16,62.16,0,0,0,16.79,2.43c21.13,0,31.94-12.42,31.94-12.42Z" transform="translate(3.96 2.44)"/><path class="cls-33" d="M57.42,15.79h0ZM8.35,2.78s15.29,13.45,41,13.45a76.56,76.56,0,0,0,8-.43c-.27,0-1.07.09-2.38.09-5.83,0-21.79-1.3-46.58-13.11Z" transform="translate(3.96 2.44)"/><path class="cls-32" d="M86.65-.18C74.65,8.08,61.39,9.94,51.91,9.94A61.93,61.93,0,0,1,39,8.71,48.2,48.2,0,0,0,57.1,12.43,41,41,0,0,0,86.65-.18Z" transform="translate(3.96 2.44)"/><path class="cls-33" d="M13.16-.34c13.56,6.11,25.37,8.12,35,8.12,18.43,0,29.05-7.3,29.05-7.3A125.84,125.84,0,0,1,47.92,3.79,143.1,143.1,0,0,1,13.16-.34Z" transform="translate(3.96 2.44)"/><path class="cls-12" d="M56.46,20a45,45,0,0,1-8.35-.7l.07-.23s.83.17,2.28.34a49.2,49.2,0,0,0,6,.35c9.22,0,24.14-2.37,34.53-15.95l.24.13C80.79,17.61,65.75,20,56.48,20Z" transform="translate(3.96 2.44)"/><path class="cls-33" d="M18.32,14.6S32.2,33.93,54.54,33.93a40.61,40.61,0,0,0,9.13-1.06,30,30,0,0,1-4.43.27c-7.87,0-25-2.15-40.92-18.54Z" transform="translate(3.96 2.44)"/><path class="cls-32" d="M91,8.92S77.31,27.65,53.84,27.65A47.24,47.24,0,0,1,41,25.83a35.25,35.25,0,0,0,17.65,4.88c9.71,0,21.88-4.44,32.36-21.79Z" transform="translate(3.96 2.44)"/><path class="cls-33" d="M31.18,18.09c8.7,5.57,16.25,7.36,22.37,7.36C64.63,25.45,71,19.57,71,19.57a47.23,47.23,0,0,1-17.32,3.17,57.41,57.41,0,0,1-22.53-4.65Z" transform="translate(3.96 2.44)"/></g></svg>